<svg xmlns="http://www.w3.org/2000/svg" version="1.0" width="3000.000000pt" height="3000.000000pt" viewBox="0 0 3000.000000 3000.000000" preserveAspectRatio="xMidYMid meet">

<g transform="translate(0.000000,3000.000000) scale(0.100000,-0.100000)" fill="#4e0f53" stroke="none">
<path d="M3132 26989 c-45 -13 -109 -80 -122 -127 -7 -28 -9 -1013 -8 -3244 l3 -3204 27 -41 c15 -22 44 -51 65 -64 l38 -24 3226 0 3225 0 41 27 c22 15 51 44 64 65 l24 38 0 3225 0 3225 -24 38 c-13 21 -42 50 -64 65 l-41 27 -3210 2 c-2007 1 -3223 -2 -3244 -8z m5569 -966 c64 -38 59 146 59 -2383 0 -2076 -2 -2305 -16 -2335 -33 -70 168 -65 -2384 -65 -2529 0 -2345 -5 -2383 59 -16 27 -17 180 -17 2341 0 2115 1 2314 16 2339 9 15 28 35 43 44 24 15 218 16 2339 17 2163 0 2316 -1 2343 -17z" fill="#4e0f53"/>
<path d="M5057 25070 c-46 -14 -93 -56 -116 -103 l-21 -44 2 -1294 3 -1294 24 -38 c13 -21 42 -50 64 -65 l41 -27 1291 -3 1292 -2 54 28 c43 22 59 38 81 81 l28 53 0 1278 0 1278 -28 53 c-22 43 -38 59 -81 81 l-53 28 -1277 -1 c-702 0 -1289 -5 -1304 -9z" fill="#4e0f53"/>
<path d="M11041 26984 c-253 -68 -410 -331 -346 -577 22 -85 61 -154 123 -219 59 -63 166 -124 234 -134 21 -4 38 -10 38 -14 0 -4 -17 -10 -38 -14 -68 -10 -175 -71 -234 -134 -183 -192 -183 -472 0 -664 59 -63 166 -124 234 -134 49 -8 49 -20 0 -28 -68 -10 -175 -71 -234 -134 -183 -192 -183 -472 0 -664 59 -63 166 -124 234 -134 49 -8 49 -20 0 -28 -68 -10 -175 -71 -234 -134 -183 -191 -183 -472 -1 -663 184 -193 479 -198 675 -11 63 59 124 166 134 234 4 21 10 38 14 38 4 0 10 -17 14 -38 11 -69 71 -175 135 -235 62 -60 159 -113 224 -123 48 -8 47 -20 -1 -28 -68 -10 -175 -71 -234 -134 -183 -192 -183 -472 0 -664 59 -63 166 -124 234 -134 48 -8 49 -20 1 -28 -65 -10 -162 -63 -224 -123 -64 -60 -124 -166 -135 -235 -4 -21 -10 -38 -14 -38 -4 0 -10 17 -14 38 -10 68 -71 175 -134 234 -196 187 -491 182 -675 -11 -182 -191 -182 -472 1 -663 59 -63 166 -124 234 -134 49 -8 49 -20 0 -28 -68 -10 -175 -71 -234 -134 -187 -196 -182 -491 11 -675 190 -182 472 -182 662 0 193 184 198 479 11 675 -59 63 -166 124 -234 134 -48 8 -49 20 0 28 64 10 161 63 223 123 64 60 124 166 135 235 8 49 20 49 28 0 17 -111 132 -259 244 -316 190 -96 400 -65 554 82 63 59 124 166 134 234 4 21 10 38 14 38 4 0 10 -17 14 -38 11 -69 71 -175 135 -235 62 -60 159 -113 224 -123 48 -8 47 -20 -1 -28 -68 -10 -175 -71 -234 -134 -183 -192 -183 -472 0 -664 59 -63 166 -124 234 -134 21 -4 38 -10 38 -14 0 -4 -17 -10 -38 -14 -111 -17 -259 -132 -316 -244 -96 -190 -65 -400 82 -554 59 -63 166 -124 234 -134 21 -4 38 -10 38 -14 0 -4 -17 -10 -38 -14 -68 -10 -175 -71 -234 -134 -187 -196 -182 -491 11 -675 190 -182 472 -182 662 0 193 184 198 479 11 675 -59 63 -166 124 -234 134 -49 8 -49 20 0 28 69 11 175 71 235 135 60 62 113 159 123 224 8 48 20 47 28 -1 10 -68 71 -175 134 -234 191 -183 472 -183 663 -1 197 187 197 499 0 686 -191 182 -472 182 -663 -1 -63 -59 -124 -166 -134 -234 -8 -48 -20 -49 -28 0 -10 64 -63 161 -123 223 -60 64 -166 124 -235 135 -49 8 -49 20 0 28 68 10 175 71 234 134 183 192 183 472 0 664 -59 63 -166 124 -234 134 -49 8 -49 20 0 28 68 10 175 71 234 134 183 192 183 472 0 664 -59 63 -166 124 -234 134 -49 8 -49 20 0 28 68 10 175 71 234 134 183 192 183 472 0 664 -59 63 -166 124 -234 134 -49 8 -49 20 0 28 68 10 175 71 234 134 187 196 182 491 -11 675 -191 182 -472 182 -663 -1 -63 -59 -124 -166 -134 -234 -8 -49 -20 -49 -28 0 -11 69 -71 175 -135 235 -62 60 -159 113 -223 123 -49 8 -48 20 0 28 68 10 175 71 234 134 183 191 183 472 1 663 -184 193 -479 198 -675 11 -63 -59 -124 -166 -134 -234 -4 -21 -10 -38 -14 -38 -4 0 -10 17 -14 38 -11 69 -71 175 -135 235 -62 60 -159 113 -223 123 -49 8 -48 20 0 28 68 10 175 71 234 134 183 192 183 472 0 664 -59 63 -166 124 -234 134 -49 8 -49 20 0 28 68 10 175 71 234 134 183 191 183 472 1 663 -118 124 -300 177 -462 133z m613 -2492 c11 -69 71 -175 135 -235 62 -60 159 -113 224 -123 48 -8 47 -20 -1 -28 -69 -11 -175 -71 -235 -135 -60 -62 -113 -159 -123 -223 -4 -21 -10 -38 -14 -38 -4 0 -10 17 -14 38 -10 64 -63 161 -123 223 -60 64 -166 124 -235 135 -48 8 -49 20 0 28 64 10 161 63 223 123 64 60 124 166 135 235 4 21 10 38 14 38 4 0 10 -17 14 -38z m960 -960 c11 -69 71 -175 135 -235 62 -60 159 -113 224 -123 48 -8 47 -20 -1 -28 -69 -11 -175 -71 -235 -135 -60 -62 -113 -159 -123 -223 -4 -21 -10 -38 -14 -38 -4 0 -10 17 -14 38 -10 64 -63 161 -123 223 -60 64 -166 124 -235 135 -48 8 -49 20 0 28 64 10 161 63 223 123 64 60 124 166 135 235 4 21 10 38 14 38 4 0 10 -17 14 -38z m0 -960 c11 -69 71 -175 135 -235 62 -60 159 -113 224 -123 48 -8 47 -20 -1 -28 -69 -11 -175 -71 -235 -135 -60 -62 -113 -159 -123 -223 -4 -21 -10 -38 -14 -38 -4 0 -10 17 -14 38 -10 64 -63 161 -123 223 -60 64 -166 124 -235 135 -48 8 -49 20 0 28 64 10 161 63 223 123 64 60 124 166 135 235 4 21 10 38 14 38 4 0 10 -17 14 -38z" fill="#4e0f53"/>
<path d="M15841 26984 c-253 -68 -410 -331 -346 -579 67 -256 329 -415 580 -350 256 67 415 329 350 578 -67 259 -333 419 -584 351z" fill="#4e0f53"/>
<path d="M17761 26984 c-253 -68 -410 -331 -346 -577 22 -85 61 -154 123 -219 59 -63 166 -124 234 -134 21 -4 38 -10 38 -14 0 -4 -17 -10 -38 -14 -68 -10 -175 -71 -234 -134 -183 -191 -183 -472 -1 -663 187 -197 499 -197 686 0 182 191 182 472 -1 663 -59 63 -166 124 -234 134 -49 8 -49 20 0 28 69 11 175 71 235 135 60 62 113 159 123 224 8 48 20 47 28 -1 10 -68 71 -175 134 -234 196 -187 491 -182 675 11 182 190 182 472 0 662 -184 193 -479 198 -675 11 -63 -59 -124 -166 -134 -234 -4 -21 -10 -38 -14 -38 -4 0 -10 17 -14 38 -3 21 -21 70 -41 109 -98 197 -334 304 -544 247z" fill="#4e0f53"/>
<path d="M20412 26989 c-45 -13 -109 -80 -122 -127 -7 -28 -9 -1013 -8 -3244 l3 -3204 27 -41 c15 -22 44 -51 65 -64 l38 -24 3226 0 3225 0 41 27 c22 15 51 44 64 65 l24 38 0 3225 0 3225 -24 38 c-13 21 -42 50 -64 65 l-41 27 -3210 2 c-2007 1 -3223 -2 -3244 -8z m5569 -966 c64 -38 59 146 59 -2383 0 -2552 5 -2351 -65 -2384 -30 -14 -259 -16 -2335 -16 -2529 0 -2345 -5 -2383 59 -16 27 -17 180 -17 2341 0 2115 1 2314 16 2339 9 15 28 35 43 44 24 15 218 16 2339 17 2163 0 2316 -1 2343 -17z" fill="#4e0f53"/>
<path d="M22337 25070 c-46 -14 -93 -56 -116 -103 l-21 -44 2 -1294 3 -1294 24 -38 c13 -21 42 -50 64 -65 l41 -27 1291 -3 1292 -2 54 28 c43 22 59 38 81 81 l28 53 0 1278 0 1278 -28 53 c-22 43 -38 59 -81 81 l-53 28 -1277 -1 c-702 0 -1289 -5 -1304 -9z" fill="#4e0f53"/>
<path d="M13921 26024 c-253 -68 -410 -331 -346 -579 67 -256 329 -415 578 -350 85 22 154 61 219 123 63 59 124 166 134 234 8 48 20 49 28 1 10 -65 63 -162 123 -224 60 -64 166 -124 235 -135 49 -8 49 -20 0 -28 -68 -10 -175 -71 -234 -134 -147 -154 -178 -364 -82 -554 57 -112 205 -227 316 -244 21 -4 38 -10 38 -14 0 -4 -17 -10 -38 -14 -68 -10 -175 -71 -234 -134 -183 -192 -183 -472 0 -664 59 -63 166 -124 234 -134 49 -8 49 -20 0 -28 -68 -10 -175 -71 -234 -134 -183 -191 -183 -472 -1 -663 184 -193 479 -198 675 -11 63 59 124 166 134 234 8 49 20 49 28 0 10 -68 71 -175 134 -234 192 -183 472 -183 664 0 63 59 124 166 134 234 4 21 10 38 14 38 4 0 10 -17 14 -38 10 -68 71 -175 134 -234 196 -187 491 -182 675 11 186 195 180 491 -12 674 -191 182 -472 182 -663 -1 -63 -59 -124 -166 -134 -234 -8 -48 -20 -49 -28 0 -10 64 -63 161 -123 223 -60 64 -166 124 -235 135 -49 8 -49 20 0 28 68 10 175 71 234 134 187 196 182 491 -11 675 -191 182 -472 182 -663 -1 -63 -59 -124 -166 -134 -234 -8 -49 -20 -49 -28 0 -11 69 -71 175 -135 235 -62 60 -159 113 -223 123 -49 8 -48 20 0 28 111 17 259 132 316 244 96 190 65 400 -82 554 -59 63 -166 124 -234 134 -49 8 -49 20 0 28 68 10 175 71 234 134 183 191 183 472 1 663 -184 193 -479 198 -675 11 -63 -59 -124 -166 -134 -234 -4 -21 -10 -38 -14 -38 -4 0 -10 17 -14 38 -3 21 -21 70 -41 109 -98 197 -334 304 -544 247z m1573 -2492 c11 -69 71 -175 135 -235 62 -60 159 -113 224 -123 48 -8 47 -20 -1 -28 -69 -11 -175 -71 -235 -135 -60 -62 -113 -159 -123 -223 -4 -21 -10 -38 -14 -38 -4 0 -10 17 -14 38 -10 64 -63 161 -123 223 -60 64 -166 124 -235 135 -48 8 -49 20 0 28 64 10 161 63 223 123 64 60 124 166 135 235 4 21 10 38 14 38 4 0 10 -17 14 -38z" fill="#4e0f53"/>
<path d="M18721 25064 c-253 -68 -410 -331 -346 -579 67 -256 329 -415 580 -350 256 67 415 329 350 578 -67 259 -333 419 -584 351z" fill="#4e0f53"/>
<path d="M17761 24104 c-253 -68 -410 -331 -346 -579 67 -256 329 -415 580 -350 256 67 415 329 350 578 -67 259 -333 419 -584 351z" fill="#4e0f53"/>
<path d="M18721 23144 c-253 -68 -410 -331 -346 -579 67 -256 329 -415 580 -350 256 67 415 329 350 578 -67 259 -333 419 -584 351z" fill="#4e0f53"/>
<path d="M14881 21224 c-253 -68 -410 -331 -346 -579 67 -256 329 -415 580 -350 256 67 415 329 350 578 -67 259 -333 419 -584 351z" fill="#4e0f53"/>
<path d="M16801 21224 c-253 -68 -410 -331 -346 -579 67 -256 329 -415 580 -350 256 67 415 329 350 578 -67 259 -333 419 -584 351z" fill="#4e0f53"/>
<path d="M18721 21224 c-253 -68 -410 -331 -346 -579 67 -256 329 -415 580 -350 256 67 415 329 350 578 -67 259 -333 419 -584 351z" fill="#4e0f53"/>
<path d="M3361 19304 c-83 -22 -165 -71 -224 -133 -182 -191 -182 -472 1 -663 59 -63 166 -124 234 -134 49 -8 49 -20 0 -28 -68 -10 -175 -71 -234 -134 -62 -65 -101 -134 -123 -219 -65 -249 94 -511 350 -578 162 -42 340 10 458 134 182 191 182 472 -1 663 -59 63 -166 124 -234 134 -21 4 -38 10 -38 14 0 4 17 10 38 14 69 11 175 71 235 135 60 62 113 159 123 224 8 48 20 47 28 -1 10 -68 71 -175 134 -234 196 -187 491 -182 675 11 182 190 182 472 0 662 -184 193 -479 198 -675 11 -63 -59 -124 -166 -134 -234 -4 -21 -10 -38 -14 -38 -4 0 -10 17 -14 38 -3 21 -21 70 -41 109 -98 197 -334 304 -544 247z" fill="#4e0f53"/>
<path d="M7201 19304 c-253 -68 -410 -331 -346 -577 22 -85 61 -154 123 -219 59 -63 166 -124 234 -134 21 -4 38 -10 38 -14 0 -4 -17 -10 -38 -14 -68 -10 -175 -71 -234 -134 -183 -192 -183 -472 0 -664 59 -63 166 -124 234 -134 48 -8 49 -20 1 -28 -65 -10 -162 -63 -224 -123 -64 -60 -124 -166 -135 -235 -4 -21 -10 -38 -14 -38 -4 0 -10 17 -14 38 -10 68 -71 175 -134 234 -196 187 -491 182 -675 -11 -182 -190 -182 -472 0 -662 184 -193 479 -198 675 -11 63 59 124 166 134 234 8 48 20 49 28 1 10 -65 63 -162 123 -224 60 -64 166 -124 235 -135 49 -8 49 -20 0 -28 -68 -10 -175 -71 -234 -134 -183 -191 -183 -472 -1 -663 184 -193 479 -198 675 -11 63 59 124 166 134 234 4 21 10 38 14 38 4 0 10 -17 14 -38 11 -69 71 -175 135 -235 62 -60 159 -113 224 -123 48 -8 47 -20 -1 -28 -68 -10 -175 -71 -234 -134 -183 -192 -183 -472 0 -664 59 -63 166 -124 234 -134 21 -4 38 -10 38 -14 0 -4 -17 -10 -38 -14 -68 -10 -175 -71 -234 -134 -187 -196 -182 -491 11 -675 190 -182 472 -182 662 0 193 184 198 479 11 675 -59 63 -166 124 -234 134 -48 8 -49 20 0 28 64 10 161 63 223 123 64 60 124 166 135 235 8 49 20 49 28 0 10 -68 71 -175 134 -234 192 -183 472 -183 664 0 63 59 124 166 134 234 8 49 20 49 28 0 10 -68 71 -175 134 -234 196 -187 491 -182 675 11 182 190 182 472 0 662 -184 193 -479 198 -675 11 -63 -59 -124 -166 -134 -234 -8 -49 -20 -49 -28 0 -10 68 -71 175 -134 234 -192 183 -472 183 -664 0 -63 -59 -124 -166 -134 -234 -8 -49 -20 -49 -28 0 -11 69 -71 175 -135 235 -62 60 -159 113 -223 123 -49 8 -48 20 0 28 68 10 175 71 234 134 187 196 182 491 -11 675 -191 182 -472 182 -663 -1 -63 -59 -124 -166 -134 -234 -4 -21 -10 -38 -14 -38 -4 0 -10 17 -14 38 -11 69 -71 175 -135 235 -62 60 -159 113 -223 123 -49 8 -48 20 0 28 68 10 175 71 234 134 183 192 183 472 0 664 -59 63 -166 124 -234 134 -48 8 -49 20 0 28 64 10 161 63 223 123 64 60 124 166 135 235 4 21 10 38 14 38 4 0 10 -17 14 -38 10 -68 71 -175 134 -234 196 -187 491 -182 675 11 182 191 182 472 -1 663 -59 63 -166 124 -234 134 -49 8 -49 20 0 28 69 11 175 71 235 135 60 62 113 159 123 224 8 48 20 47 28 -1 10 -68 71 -175 134 -234 191 -183 472 -183 663 -1 197 187 197 499 0 686 -191 182 -472 182 -663 -1 -63 -59 -124 -166 -134 -234 -8 -49 -20 -49 -28 0 -17 111 -132 259 -244 316 -190 96 -400 65 -554 -82 -63 -59 -124 -166 -134 -234 -4 -21 -10 -38 -14 -38 -4 0 -10 17 -14 38 -3 21 -21 70 -41 109 -98 197 -334 304 -544 247z m613 -572 c11 -69 71 -175 135 -235 62 -60 159 -113 224 -123 48 -8 47 -20 -1 -28 -69 -11 -175 -71 -235 -135 -60 -62 -113 -159 -123 -223 -4 -21 -10 -38 -14 -38 -4 0 -10 17 -14 38 -10 64 -63 161 -123 223 -60 64 -166 124 -235 135 -48 8 -49 20 0 28 64 10 161 63 223 123 64 60 124 166 135 235 4 21 10 38 14 38 4 0 10 -17 14 -38z" fill="#4e0f53"/>
<path d="M14881 19304 c-253 -68 -410 -331 -346 -579 67 -256 329 -415 580 -350 256 67 415 329 350 578 -67 259 -333 419 -584 351z" fill="#4e0f53"/>
<path d="M21601 19304 c-253 -68 -410 -331 -346 -579 67 -256 329 -415 580 -350 256 67 415 329 350 578 -67 259 -333 419 -584 351z" fill="#4e0f53"/>
<path d="M23521 19304 c-253 -68 -410 -331 -346 -577 22 -85 61 -154 123 -219 59 -63 166 -124 234 -134 21 -4 38 -10 38 -14 0 -4 -17 -10 -38 -14 -68 -10 -175 -71 -234 -134 -62 -65 -101 -134 -123 -219 -65 -249 94 -511 350 -578 162 -42 340 10 458 134 182 191 182 472 -1 663 -59 63 -166 124 -234 134 -21 4 -38 10 -38 14 0 4 17 10 38 14 69 11 175 71 235 135 60 62 113 159 123 224 8 48 20 47 28 -1 10 -68 71 -175 134 -234 192 -183 472 -183 664 0 63 59 124 166 134 234 8 49 20 49 28 0 10 -68 71 -175 134 -234 192 -183 472 -183 664 0 63 59 124 166 134 234 8 48 20 49 28 1 10 -65 63 -162 123 -224 60 -64 166 -124 235 -135 21 -4 38 -10 38 -14 0 -4 -17 -10 -38 -14 -68 -10 -175 -71 -234 -134 -183 -192 -183 -472 0 -664 59 -63 166 -124 234 -134 21 -4 38 -10 38 -14 0 -4 -17 -10 -38 -14 -69 -11 -175 -71 -235 -135 -60 -62 -113 -159 -123 -223 -8 -49 -20 -48 -28 0 -10 68 -71 175 -134 234 -196 187 -491 182 -675 -11 -182 -191 -182 -472 1 -663 59 -63 166 -124 234 -134 48 -8 49 -20 1 -28 -65 -10 -162 -63 -224 -123 -64 -60 -124 -166 -135 -235 -8 -49 -20 -49 -28 0 -10 68 -71 175 -134 234 -191 183 -472 183 -663 1 -192 -183 -198 -479 -12 -674 184 -193 479 -198 675 -11 63 59 124 166 134 234 4 21 10 38 14 38 4 0 10 -17 14 -38 11 -69 71 -175 135 -235 62 -60 159 -113 224 -123 48 -8 47 -20 -1 -28 -68 -10 -175 -71 -234 -134 -183 -191 -183 -472 -1 -663 184 -193 479 -198 675 -11 63 59 124 166 134 234 4 21 10 38 14 38 4 0 10 -17 14 -38 10 -68 71 -175 134 -234 196 -187 491 -182 675 11 182 191 182 472 -1 663 -59 63 -166 124 -234 134 -49 8 -49 20 0 28 68 10 175 71 234 134 183 192 183 472 0 664 -59 63 -166 124 -234 134 -49 8 -49 20 0 28 68 10 175 71 234 134 183 192 183 472 0 664 -59 63 -166 124 -234 134 -21 4 -38 10 -38 14 0 4 17 10 38 14 111 17 259 132 316 244 96 190 65 400 -82 554 -59 63 -166 124 -234 134 -21 4 -38 10 -38 14 0 4 17 10 38 14 68 10 175 71 234 134 183 191 183 472 1 663 -184 193 -479 198 -675 11 -63 -59 -124 -166 -134 -234 -8 -49 -20 -49 -28 0 -10 68 -71 175 -134 234 -192 183 -472 183 -664 0 -63 -59 -124 -166 -134 -234 -8 -49 -20 -49 -28 0 -17 111 -132 259 -244 316 -190 96 -400 65 -554 -82 -63 -59 -124 -166 -134 -234 -4 -21 -10 -38 -14 -38 -4 0 -10 17 -14 38 -3 21 -21 70 -41 109 -98 197 -334 304 -544 247z m2533 -2492 c11 -69 71 -175 135 -235 62 -60 159 -113 224 -123 48 -8 47 -20 -1 -28 -69 -11 -175 -71 -235 -135 -60 -62 -113 -159 -123 -223 -4 -21 -10 -38 -14 -38 -4 0 -10 17 -14 38 -10 64 -63 161 -123 223 -60 64 -166 124 -235 135 -48 8 -49 20 0 28 64 10 161 63 223 123 64 60 124 166 135 235 4 21 10 38 14 38 4 0 10 -17 14 -38z m0 -960 c11 -69 71 -175 135 -235 62 -60 159 -113 224 -123 48 -8 47 -20 -1 -28 -69 -11 -175 -71 -235 -135 -60 -62 -113 -159 -123 -223 -4 -21 -10 -38 -14 -38 -4 0 -10 17 -14 38 -10 64 -63 161 -123 223 -60 64 -166 124 -235 135 -48 8 -49 20 0 28 64 10 161 63 223 123 64 60 124 166 135 235 4 21 10 38 14 38 4 0 10 -17 14 -38z" fill="#4e0f53"/>
<path d="M5281 18344 c-253 -68 -410 -331 -346 -579 67 -256 329 -415 580 -350 256 67 415 329 350 578 -67 259 -333 419 -584 351z" fill="#4e0f53"/>
<path d="M15841 18344 c-169 -45 -301 -180 -346 -351 -42 -160 11 -338 134 -456 191 -182 472 -182 663 1 63 59 124 166 134 234 8 48 20 49 28 1 10 -65 63 -162 123 -224 60 -64 166 -124 235 -135 49 -8 49 -20 0 -28 -68 -10 -175 -71 -234 -134 -147 -154 -178 -364 -82 -554 57 -112 205 -227 316 -244 21 -4 38 -10 38 -14 0 -4 -17 -10 -38 -14 -68 -10 -175 -71 -234 -134 -187 -196 -182 -491 11 -675 190 -182 472 -182 662 0 193 184 198 479 11 675 -59 63 -166 124 -234 134 -48 8 -49 20 0 28 64 10 161 63 223 123 64 60 124 166 135 235 4 21 10 38 14 38 4 0 10 -17 14 -38 10 -68 71 -175 134 -234 192 -183 472 -183 664 0 63 59 124 166 134 234 8 49 20 49 28 0 10 -68 71 -175 134 -234 196 -187 491 -182 675 11 182 191 182 472 -1 663 -59 63 -166 124 -234 134 -49 8 -49 20 0 28 69 11 175 71 235 135 60 62 113 159 123 224 8 48 20 47 28 -1 10 -68 71 -175 134 -234 191 -183 472 -183 663 -1 197 187 197 499 0 686 -191 182 -472 182 -663 -1 -63 -59 -124 -166 -134 -234 -4 -21 -10 -38 -14 -38 -4 0 -10 17 -14 38 -10 68 -71 175 -134 234 -191 183 -472 183 -663 1 -193 -184 -198 -479 -11 -675 59 -63 166 -124 234 -134 21 -4 38 -10 38 -14 0 -4 -17 -10 -38 -14 -69 -11 -175 -71 -235 -135 -60 -62 -113 -159 -123 -223 -8 -49 -20 -48 -28 0 -10 68 -71 175 -134 234 -192 183 -472 183 -664 0 -63 -59 -124 -166 -134 -234 -8 -49 -20 -49 -28 0 -11 69 -71 175 -135 235 -62 60 -159 113 -223 123 -49 8 -48 20 0 28 68 10 175 71 234 134 183 191 183 472 1 663 -184 193 -479 198 -675 11 -63 -59 -124 -166 -134 -234 -4 -21 -10 -38 -14 -38 -4 0 -10 17 -14 38 -3 21 -21 70 -41 109 -98 197 -334 304 -544 247z" fill="#4e0f53"/>
<path d="M9121 17384 c-169 -45 -301 -180 -346 -351 -42 -160 11 -338 134 -456 191 -182 472 -182 663 1 63 59 124 166 134 234 4 21 10 38 14 38 4 0 10 -17 14 -38 10 -68 71 -175 134 -234 196 -187 491 -182 675 11 182 190 182 472 0 662 -184 193 -479 198 -675 11 -63 -59 -124 -166 -134 -234 -4 -21 -10 -38 -14 -38 -4 0 -10 17 -14 38 -3 21 -21 70 -41 109 -98 197 -334 304 -544 247z" fill="#4e0f53"/>
<path d="M12001 17384 c-253 -68 -410 -331 -346 -577 22 -85 61 -154 123 -219 59 -63 166 -124 234 -134 21 -4 38 -10 38 -14 0 -4 -17 -10 -38 -14 -69 -11 -175 -71 -235 -135 -60 -62 -113 -159 -123 -223 -8 -49 -20 -48 -28 0 -10 68 -71 175 -134 234 -196 187 -491 182 -675 -11 -182 -190 -182 -472 0 -662 184 -193 479 -198 675 -11 63 59 124 166 134 234 4 21 10 38 14 38 4 0 10 -17 14 -38 10 -68 71 -175 134 -234 196 -187 491 -182 675 11 182 191 182 472 -1 663 -59 63 -166 124 -234 134 -49 8 -49 20 0 28 69 11 175 71 235 135 60 62 113 159 123 224 8 48 20 47 28 -1 10 -68 71 -175 134 -234 196 -187 491 -182 675 11 182 190 182 472 0 662 -184 193 -479 198 -675 11 -63 -59 -124 -166 -134 -234 -4 -21 -10 -38 -14 -38 -4 0 -10 17 -14 38 -3 21 -21 70 -41 109 -98 197 -334 304 -544 247z" fill="#4e0f53"/>
<path d="M22561 17384 c-253 -68 -410 -331 -346 -579 67 -256 329 -415 580 -350 256 67 415 329 350 578 -67 259 -333 419 -584 351z" fill="#4e0f53"/>
<path d="M3361 16424 c-83 -22 -165 -71 -224 -133 -182 -191 -182 -472 1 -663 59 -63 166 -124 234 -134 49 -8 49 -20 0 -28 -68 -10 -175 -71 -234 -134 -183 -192 -183 -472 0 -664 59 -63 166 -124 234 -134 49 -8 49 -20 0 -28 -68 -10 -175 -71 -234 -134 -187 -196 -182 -491 11 -675 191 -182 472 -182 663 1 63 59 124 166 134 234 4 21 10 38 14 38 4 0 10 -17 14 -38 10 -68 71 -175 134 -234 192 -183 472 -183 664 0 63 59 124 166 134 234 4 21 10 38 14 38 4 0 10 -17 14 -38 11 -69 71 -175 135 -235 62 -60 159 -113 224 -123 48 -8 47 -20 -1 -28 -68 -10 -175 -71 -234 -134 -183 -191 -183 -472 -1 -663 184 -193 479 -198 675 -11 63 59 124 166 134 234 4 21 10 38 14 38 4 0 10 -17 14 -38 10 -68 71 -175 134 -234 196 -187 491 -182 675 11 182 191 182 472 -1 663 -59 63 -166 124 -234 134 -49 8 -49 20 0 28 68 10 175 71 234 134 187 196 182 491 -11 675 -191 182 -472 182 -663 -1 -63 -59 -124 -166 -134 -234 -8 -49 -20 -49 -28 0 -11 69 -71 175 -135 235 -62 60 -159 113 -223 123 -49 8 -48 20 0 28 68 10 175 71 234 134 187 196 182 491 -11 675 -195 186 -491 180 -674 -12 -182 -191 -182 -472 1 -663 59 -63 166 -124 234 -134 48 -8 49 -20 1 -28 -65 -10 -162 -63 -224 -123 -64 -60 -124 -166 -135 -235 -8 -49 -20 -49 -28 0 -10 68 -71 175 -134 234 -192 183 -472 183 -664 0 -63 -59 -124 -166 -134 -234 -8 -49 -20 -49 -28 0 -11 69 -71 175 -135 235 -62 60 -159 113 -223 123 -49 8 -48 20 0 28 68 10 175 71 234 134 183 192 183 472 0 664 -59 63 -166 124 -234 134 -49 8 -49 20 0 28 68 10 175 71 234 134 183 191 183 472 1 663 -118 124 -300 177 -462 133z m2533 -2492 c11 -69 71 -175 135 -235 62 -60 159 -113 224 -123 48 -8 47 -20 -1 -28 -69 -11 -175 -71 -235 -135 -60 -62 -113 -159 -123 -223 -4 -21 -10 -38 -14 -38 -4 0 -10 17 -14 38 -10 64 -63 161 -123 223 -60 64 -166 124 -235 135 -48 8 -49 20 0 28 64 10 161 63 223 123 64 60 124 166 135 235 4 21 10 38 14 38 4 0 10 -17 14 -38z" fill="#4e0f53"/>
<path d="M14881 16424 c-253 -68 -410 -331 -346 -579 67 -256 329 -415 580 -350 256 67 415 329 350 578 -67 259 -333 419 -584 351z" fill="#4e0f53"/>
<path d="M20641 16424 c-253 -68 -410 -331 -346 -577 22 -85 61 -154 123 -219 59 -63 166 -124 234 -134 21 -4 38 -10 38 -14 0 -4 -17 -10 -38 -14 -68 -10 -175 -71 -234 -134 -183 -192 -183 -472 0 -664 59 -63 166 -124 234 -134 48 -8 49 -20 1 -28 -65 -10 -162 -63 -224 -123 -64 -60 -124 -166 -135 -235 -4 -21 -10 -38 -14 -38 -4 0 -10 17 -14 38 -10 68 -71 175 -134 234 -192 183 -472 183 -664 0 -63 -59 -124 -166 -134 -234 -4 -21 -10 -38 -14 -38 -4 0 -10 17 -14 38 -10 68 -71 175 -134 234 -154 147 -364 178 -554 82 -112 -57 -227 -205 -244 -316 -8 -49 -20 -49 -28 0 -10 68 -71 175 -134 234 -196 187 -491 182 -675 -11 -186 -195 -180 -491 12 -674 191 -182 472 -182 663 1 63 59 124 166 134 234 8 48 20 49 28 1 10 -65 63 -162 123 -224 60 -64 166 -124 235 -135 49 -8 49 -20 0 -28 -111 -17 -259 -132 -316 -244 -96 -190 -65 -400 82 -554 59 -63 166 -124 234 -134 49 -8 49 -20 0 -28 -68 -10 -175 -71 -234 -134 -183 -192 -183 -472 0 -664 59 -63 166 -124 234 -134 49 -8 49 -20 0 -28 -68 -10 -175 -71 -234 -134 -147 -154 -178 -364 -82 -554 57 -112 205 -227 316 -244 49 -8 49 -20 0 -28 -69 -11 -175 -71 -235 -135 -60 -62 -113 -159 -123 -223 -8 -49 -20 -48 -28 0 -10 68 -71 175 -134 234 -191 183 -472 183 -663 1 -197 -187 -197 -499 0 -686 191 -182 472 -182 663 1 63 59 124 166 134 234 8 48 20 49 28 1 10 -65 63 -162 123 -224 60 -64 166 -124 235 -135 21 -4 38 -10 38 -14 0 -4 -17 -10 -38 -14 -68 -10 -175 -71 -234 -134 -183 -192 -183 -472 0 -664 59 -63 166 -124 234 -134 49 -8 49 -20 0 -28 -68 -10 -175 -71 -234 -134 -183 -192 -183 -472 0 -664 59 -63 166 -124 234 -134 21 -4 38 -10 38 -14 0 -4 -17 -10 -38 -14 -69 -11 -175 -71 -235 -135 -60 -62 -113 -159 -123 -223 -8 -49 -20 -48 -28 0 -10 68 -71 175 -134 234 -65 62 -134 101 -219 123 -249 65 -511 -94 -578 -350 -42 -162 10 -340 134 -458 191 -182 472 -182 663 1 63 59 124 166 134 234 8 48 20 49 28 1 10 -65 63 -162 123 -224 60 -64 166 -124 235 -135 49 -8 49 -20 0 -28 -68 -10 -175 -71 -234 -134 -183 -192 -183 -472 0 -664 59 -63 166 -124 234 -134 49 -8 49 -20 0 -28 -68 -10 -175 -71 -234 -134 -183 -191 -183 -472 -1 -663 184 -193 479 -198 675 -11 63 59 124 166 134 234 8 49 20 49 28 0 10 -68 71 -175 134 -234 192 -183 472 -183 664 0 63 59 124 166 134 234 8 49 20 49 28 0 10 -68 71 -175 134 -234 196 -187 491 -182 675 11 182 191 182 472 -1 663 -59 63 -166 124 -234 134 -21 4 -38 10 -38 14 0 4 17 10 38 14 69 11 175 71 235 135 60 62 113 159 123 224 8 48 20 47 28 -1 10 -68 71 -175 134 -234 196 -187 491 -182 675 11 182 191 182 472 -1 663 -59 63 -166 124 -234 134 -21 4 -38 10 -38 14 0 4 17 10 38 14 69 11 175 71 235 135 60 62 113 159 123 224 8 48 20 47 28 -1 10 -68 71 -175 134 -234 191 -183 472 -183 663 -1 193 184 198 479 11 675 -59 63 -166 124 -234 134 -21 4 -38 10 -38 14 0 4 17 10 38 14 69 11 175 71 235 135 60 62 113 159 123 224 8 48 20 47 28 -1 10 -68 71 -175 134 -234 192 -183 472 -183 664 0 63 59 124 166 134 234 8 49 20 49 28 0 10 -68 71 -175 134 -234 192 -183 472 -183 664 0 63 59 124 166 134 234 8 49 20 49 28 0 10 -68 71 -175 134 -234 192 -183 472 -183 664 0 63 59 124 166 134 234 8 49 20 49 28 0 10 -68 71 -175 134 -234 191 -183 472 -183 663 -1 197 187 197 499 0 686 -191 182 -472 182 -663 -1 -63 -59 -124 -166 -134 -234 -8 -49 -20 -49 -28 0 -10 68 -71 175 -134 234 -192 183 -472 183 -664 0 -63 -59 -124 -166 -134 -234 -8 -49 -20 -49 -28 0 -10 68 -71 175 -134 234 -192 183 -472 183 -664 0 -63 -59 -124 -166 -134 -234 -8 -49 -20 -49 -28 0 -10 68 -71 175 -134 234 -192 183 -472 183 -664 0 -63 -59 -124 -166 -134 -234 -8 -48 -20 -49 -28 0 -10 64 -63 161 -123 223 -60 64 -166 124 -235 135 -49 8 -49 20 0 28 68 10 175 71 234 134 183 192 183 472 0 664 -59 63 -166 124 -234 134 -21 4 -38 10 -38 14 0 4 17 10 38 14 69 11 175 71 235 135 60 62 113 159 123 224 8 48 20 47 28 -1 10 -68 71 -175 134 -234 191 -183 472 -183 663 -1 197 187 197 499 0 686 -191 182 -472 182 -663 -1 -63 -59 -124 -166 -134 -234 -8 -48 -20 -49 -28 0 -10 64 -63 161 -123 223 -60 64 -166 124 -235 135 -49 8 -49 20 0 28 68 10 175 71 234 134 183 191 183 472 1 663 -184 193 -479 198 -675 11 -63 -59 -124 -166 -134 -234 -8 -49 -20 -49 -28 0 -10 68 -71 175 -134 234 -192 183 -472 183 -664 0 -63 -59 -124 -166 -134 -234 -4 -21 -10 -38 -14 -38 -4 0 -10 17 -14 38 -11 69 -71 175 -135 235 -62 60 -159 113 -223 123 -49 8 -48 20 0 28 68 10 175 71 234 134 183 191 183 472 1 663 -187 197 -499 197 -686 0 -182 -191 -182 -472 1 -663 59 -63 166 -124 234 -134 48 -8 49 -20 1 -28 -65 -10 -162 -63 -224 -123 -64 -60 -124 -166 -135 -235 -8 -49 -20 -49 -28 0 -10 68 -71 175 -134 234 -192 183 -472 183 -664 0 -63 -59 -124 -166 -134 -234 -8 -49 -20 -49 -28 0 -11 69 -71 175 -135 235 -62 60 -159 113 -223 123 -49 8 -48 20 0 28 68 10 175 71 234 134 183 192 183 472 0 664 -59 63 -166 124 -234 134 -49 8 -49 20 0 28 68 10 175 71 234 134 183 192 183 472 0 664 -59 63 -166 124 -234 134 -48 8 -49 20 0 28 64 10 161 63 223 123 64 60 124 166 135 235 8 49 20 49 28 0 10 -68 71 -175 134 -234 192 -183 472 -183 664 0 63 59 124 166 134 234 4 21 10 38 14 38 4 0 10 -17 14 -38 10 -68 71 -175 134 -234 191 -183 472 -183 663 -1 193 184 198 479 11 675 -59 63 -166 124 -234 134 -49 8 -49 20 0 28 68 10 175 71 234 134 183 192 183 472 0 664 -59 63 -166 124 -234 134 -21 4 -38 10 -38 14 0 4 17 10 38 14 68 10 175 71 234 134 183 191 183 472 1 663 -118 124 -300 177 -462 133z m-1307 -5372 c10 -68 71 -175 134 -234 192 -183 472 -183 664 0 63 59 124 166 134 234 4 21 10 38 14 38 4 0 10 -17 14 -38 10 -68 71 -175 134 -234 192 -183 472 -183 664 0 63 59 124 166 134 234 4 21 10 38 14 38 4 0 10 -17 14 -38 10 -68 71 -175 134 -234 192 -183 472 -183 664 0 63 59 124 166 134 234 4 21 10 38 14 38 4 0 10 -17 14 -38 11 -69 71 -175 135 -235 62 -60 159 -113 224 -123 48 -8 47 -20 -1 -28 -68 -10 -175 -71 -234 -134 -183 -192 -183 -472 0 -664 59 -63 166 -124 234 -134 49 -8 49 -20 0 -28 -68 -10 -175 -71 -234 -134 -183 -192 -183 -472 0 -664 59 -63 166 -124 234 -134 49 -8 49 -20 0 -28 -68 -10 -175 -71 -234 -134 -183 -192 -183 -472 0 -664 59 -63 166 -124 234 -134 48 -8 49 -20 1 -28 -65 -10 -162 -63 -224 -123 -64 -60 -124 -166 -135 -235 -8 -49 -20 -49 -28 0 -10 68 -71 175 -134 234 -192 183 -472 183 -664 0 -63 -59 -124 -166 -134 -234 -8 -49 -20 -49 -28 0 -10 68 -71 175 -134 234 -192 183 -472 183 -664 0 -63 -59 -124 -166 -134 -234 -8 -49 -20 -49 -28 0 -10 68 -71 175 -134 234 -192 183 -472 183 -664 0 -63 -59 -124 -166 -134 -234 -8 -49 -20 -49 -28 0 -11 69 -71 175 -135 235 -62 60 -159 113 -223 123 -49 8 -48 20 0 28 68 10 175 71 234 134 183 192 183 472 0 664 -59 63 -166 124 -234 134 -49 8 -49 20 0 28 68 10 175 71 234 134 183 192 183 472 0 664 -59 63 -166 124 -234 134 -21 4 -38 10 -38 14 0 4 17 10 38 14 111 17 259 132 316 244 96 190 65 400 -82 554 -59 63 -166 124 -234 134 -48 8 -49 20 0 28 64 10 161 63 223 123 64 60 124 166 135 235 4 21 10 38 14 38 4 0 10 -17 14 -38z m0 -3840 c10 -68 71 -175 134 -234 192 -183 472 -183 664 0 63 59 124 166 134 234 8 49 20 49 28 0 11 -69 71 -175 135 -235 62 -60 159 -113 224 -123 48 -8 47 -20 -1 -28 -68 -10 -175 -71 -234 -134 -183 -192 -183 -472 0 -664 59 -63 166 -124 234 -134 21 -4 38 -10 38 -14 0 -4 -17 -10 -38 -14 -69 -11 -175 -71 -235 -135 -60 -62 -113 -159 -123 -223 -8 -49 -20 -48 -28 0 -10 68 -71 175 -134 234 -154 147 -364 178 -554 82 -112 -57 -227 -205 -244 -316 -8 -48 -20 -49 -28 0 -10 64 -63 161 -123 223 -60 64 -166 124 -235 135 -21 4 -38 10 -38 14 0 4 17 10 38 14 111 17 259 132 316 244 96 190 65 400 -82 554 -59 63 -166 124 -234 134 -48 8 -49 20 0 28 64 10 161 63 223 123 64 60 124 166 135 235 4 21 10 38 14 38 4 0 10 -17 14 -38z m1920 0 c11 -69 71 -175 135 -235 62 -60 159 -113 224 -123 48 -8 47 -20 -1 -28 -69 -11 -175 -71 -235 -135 -60 -62 -113 -159 -123 -223 -4 -21 -10 -38 -14 -38 -4 0 -10 17 -14 38 -10 64 -63 161 -123 223 -60 64 -166 124 -235 135 -48 8 -49 20 0 28 64 10 161 63 223 123 64 60 124 166 135 235 4 21 10 38 14 38 4 0 10 -17 14 -38z" fill="#4e0f53"/>
<path d="M20641 9704 c-253 -68 -410 -331 -346 -579 67 -256 329 -415 580 -350 256 67 415 329 350 578 -67 259 -333 419 -584 351z" fill="#4e0f53"/>
<path d="M13921 15464 c-253 -68 -410 -331 -346 -579 67 -256 329 -415 580 -350 256 67 415 329 350 578 -67 259 -333 419 -584 351z" fill="#4e0f53"/>
<path d="M12001 14504 c-169 -45 -301 -180 -346 -351 -42 -160 11 -338 134 -456 191 -182 472 -182 663 1 63 59 124 166 134 234 4 21 10 38 14 38 4 0 10 -17 14 -38 10 -68 71 -175 134 -234 196 -187 491 -182 675 11 182 190 182 472 0 662 -184 193 -479 198 -675 11 -63 -59 -124 -166 -134 -234 -4 -21 -10 -38 -14 -38 -4 0 -10 17 -14 38 -3 21 -21 70 -41 109 -98 197 -334 304 -544 247z" fill="#4e0f53"/>
<path d="M14881 14504 c-253 -68 -410 -331 -346 -577 22 -85 61 -154 123 -219 59 -63 166 -124 234 -134 21 -4 38 -10 38 -14 0 -4 -17 -10 -38 -14 -69 -11 -175 -71 -235 -135 -60 -62 -113 -159 -123 -223 -8 -49 -20 -48 -28 0 -10 68 -71 175 -134 234 -196 187 -491 182 -675 -11 -182 -191 -182 -472 1 -663 59 -63 166 -124 234 -134 49 -8 49 -20 0 -28 -68 -10 -175 -71 -234 -134 -183 -191 -183 -472 -1 -663 183 -192 479 -198 674 -12 193 184 198 479 11 675 -59 63 -166 124 -234 134 -48 8 -49 20 0 28 64 10 161 63 223 123 64 60 124 166 135 235 4 21 10 38 14 38 4 0 10 -17 14 -38 10 -68 71 -175 134 -234 192 -183 472 -183 664 0 63 59 124 166 134 234 4 21 10 38 14 38 4 0 10 -17 14 -38 17 -111 132 -259 244 -316 190 -96 400 -65 554 82 63 59 124 166 134 234 8 49 20 49 28 0 11 -69 71 -175 135 -235 62 -60 159 -113 224 -123 48 -8 47 -20 -1 -28 -68 -10 -175 -71 -234 -134 -187 -196 -182 -491 11 -675 190 -182 472 -182 662 0 193 184 198 479 11 675 -59 63 -166 124 -234 134 -49 8 -49 20 0 28 68 10 175 71 234 134 187 196 182 491 -11 675 -191 182 -472 182 -663 -1 -63 -59 -124 -166 -134 -234 -8 -49 -20 -49 -28 0 -11 69 -71 175 -135 235 -62 60 -159 113 -223 123 -49 8 -48 20 0 28 68 10 175 71 234 134 183 191 183 472 1 663 -184 193 -479 198 -675 11 -63 -59 -124 -166 -134 -234 -4 -21 -10 -38 -14 -38 -4 0 -10 17 -14 38 -3 21 -21 70 -41 109 -98 197 -334 304 -544 247z m613 -572 c11 -69 71 -175 135 -235 62 -60 159 -113 224 -123 48 -8 47 -20 -1 -28 -69 -11 -175 -71 -235 -135 -60 -62 -113 -159 -123 -223 -4 -21 -10 -38 -14 -38 -4 0 -10 17 -14 38 -10 64 -63 161 -123 223 -60 64 -166 124 -235 135 -48 8 -49 20 0 28 64 10 161 63 223 123 64 60 124 166 135 235 4 21 10 38 14 38 4 0 10 -17 14 -38z" fill="#4e0f53"/>
<path d="M23521 14504 c-253 -68 -410 -331 -346 -579 67 -256 329 -415 580 -350 256 67 415 329 350 578 -67 259 -333 419 -584 351z" fill="#4e0f53"/>
<path d="M9121 13544 c-169 -45 -301 -180 -346 -351 -42 -160 11 -338 134 -456 191 -182 472 -182 663 1 63 59 124 166 134 234 8 48 20 49 28 1 10 -65 63 -162 123 -224 60 -64 166 -124 235 -135 49 -8 49 -20 0 -28 -68 -10 -175 -71 -234 -134 -183 -192 -183 -472 0 -664 59 -63 166 -124 234 -134 48 -8 49 -20 1 -28 -65 -10 -162 -63 -224 -123 -64 -60 -124 -166 -135 -235 -8 -49 -20 -49 -28 0 -10 68 -71 175 -134 234 -196 187 -491 182 -675 -11 -186 -195 -180 -491 12 -674 191 -182 472 -182 663 1 63 59 124 166 134 234 4 21 10 38 14 38 4 0 10 -17 14 -38 10 -68 71 -175 134 -234 191 -183 472 -183 663 -1 193 184 198 479 11 675 -59 63 -166 124 -234 134 -49 8 -49 20 0 28 68 10 175 71 234 134 183 192 183 472 0 664 -59 63 -166 124 -234 134 -49 8 -49 20 0 28 68 10 175 71 234 134 183 191 183 472 1 663 -184 193 -479 198 -675 11 -63 -59 -124 -166 -134 -234 -4 -21 -10 -38 -14 -38 -4 0 -10 17 -14 38 -3 21 -21 70 -41 109 -98 197 -334 304 -544 247z" fill="#4e0f53"/>
<path d="M22561 13544 c-253 -68 -410 -331 -346 -579 67 -256 329 -415 580 -350 256 67 415 329 350 578 -67 259 -333 419 -584 351z" fill="#4e0f53"/>
<path d="M8161 12584 c-253 -68 -410 -331 -346 -579 67 -256 329 -415 580 -350 256 67 415 329 350 578 -67 259 -333 419 -584 351z" fill="#4e0f53"/>
<path d="M12001 12584 c-253 -68 -410 -331 -346 -579 67 -256 329 -415 580 -350 256 67 415 329 350 578 -67 259 -333 419 -584 351z" fill="#4e0f53"/>
<path d="M24481 12584 c-253 -68 -410 -331 -346 -579 67 -256 329 -415 580 -350 256 67 415 329 350 578 -67 259 -333 419 -584 351z" fill="#4e0f53"/>
<path d="M3361 11624 c-169 -45 -301 -180 -346 -351 -42 -160 11 -338 134 -456 191 -182 472 -182 663 1 63 59 124 166 134 234 4 21 10 38 14 38 4 0 10 -17 14 -38 17 -111 132 -259 244 -316 190 -96 400 -65 554 82 63 59 124 166 134 234 8 49 20 49 28 0 10 -68 71 -175 134 -234 191 -183 472 -183 663 -1 197 187 197 499 0 686 -191 182 -472 182 -663 -1 -63 -59 -124 -166 -134 -234 -8 -49 -20 -49 -28 0 -17 111 -132 259 -244 316 -190 96 -400 65 -554 -82 -63 -59 -124 -166 -134 -234 -4 -21 -10 -38 -14 -38 -4 0 -10 17 -14 38 -3 21 -21 70 -41 109 -98 197 -334 304 -544 247z" fill="#4e0f53"/>
<path d="M7201 11624 c-253 -68 -410 -331 -346 -579 67 -256 329 -415 580 -350 256 67 415 329 350 578 -67 259 -333 419 -584 351z" fill="#4e0f53"/>
<path d="M14881 11624 c-169 -45 -301 -180 -346 -351 -42 -160 11 -338 134 -456 191 -182 472 -182 663 1 63 59 124 166 134 234 8 48 20 49 28 1 10 -65 63 -162 123 -224 60 -64 166 -124 235 -135 49 -8 49 -20 0 -28 -68 -10 -175 -71 -234 -134 -183 -191 -183 -472 -1 -663 187 -197 499 -197 686 0 182 191 182 472 -1 663 -59 63 -166 124 -234 134 -49 8 -49 20 0 28 68 10 175 71 234 134 183 191 183 472 1 663 -184 193 -479 198 -675 11 -63 -59 -124 -166 -134 -234 -4 -21 -10 -38 -14 -38 -4 0 -10 17 -14 38 -3 21 -21 70 -41 109 -98 197 -334 304 -544 247z" fill="#4e0f53"/>
<path d="M26401 11624 c-253 -68 -410 -331 -346 -577 22 -85 61 -154 123 -219 59 -63 166 -124 234 -134 21 -4 38 -10 38 -14 0 -4 -17 -10 -38 -14 -68 -10 -175 -71 -234 -134 -183 -191 -183 -472 -1 -663 118 -124 296 -176 458 -134 256 67 415 329 350 578 -22 85 -61 154 -123 219 -59 63 -166 124 -234 134 -21 4 -38 10 -38 14 0 4 17 10 38 14 68 10 175 71 234 134 183 191 183 472 1 663 -118 124 -300 177 -462 133z" fill="#4e0f53"/>
<path d="M11041 10664 c-253 -68 -410 -331 -346 -579 67 -256 329 -415 580 -350 256 67 415 329 350 578 -67 259 -333 419 -584 351z" fill="#4e0f53"/>
<path d="M12961 10664 c-253 -68 -410 -331 -346 -577 22 -85 61 -154 123 -219 59 -63 166 -124 234 -134 21 -4 38 -10 38 -14 0 -4 -17 -10 -38 -14 -69 -11 -175 -71 -235 -135 -60 -62 -113 -159 -123 -223 -8 -49 -20 -48 -28 0 -10 68 -71 175 -134 234 -196 187 -491 182 -675 -11 -182 -191 -182 -472 1 -663 59 -63 166 -124 234 -134 48 -8 49 -20 1 -28 -65 -10 -162 -63 -224 -123 -64 -60 -124 -166 -135 -235 -8 -49 -20 -49 -28 0 -10 68 -71 175 -134 234 -196 187 -491 182 -675 -11 -182 -191 -182 -472 1 -663 59 -63 166 -124 234 -134 49 -8 49 -20 0 -28 -68 -10 -175 -71 -234 -134 -183 -191 -183 -472 -1 -663 187 -197 499 -197 686 0 182 191 182 472 -1 663 -59 63 -166 124 -234 134 -48 8 -49 20 0 28 64 10 161 63 223 123 64 60 124 166 135 235 8 49 20 49 28 0 10 -68 71 -175 134 -234 191 -183 472 -183 663 -1 193 184 198 479 11 675 -59 63 -166 124 -234 134 -48 8 -49 20 0 28 64 10 161 63 223 123 64 60 124 166 135 235 8 49 20 49 28 0 10 -68 71 -175 134 -234 196 -187 491 -182 675 11 182 191 182 472 -1 663 -59 63 -166 124 -234 134 -49 8 -49 20 0 28 68 10 175 71 234 134 183 191 183 472 1 663 -118 124 -300 177 -462 133z" fill="#4e0f53"/>
<path d="M3132 9709 c-45 -13 -109 -80 -122 -127 -7 -28 -9 -1013 -8 -3244 l3 -3204 27 -41 c15 -22 44 -51 65 -64 l38 -24 3226 0 3225 0 41 27 c22 15 51 44 64 65 l24 38 0 3225 0 3225 -24 38 c-13 21 -42 50 -64 65 l-41 27 -3210 2 c-2007 1 -3223 -2 -3244 -8z m5569 -966 c64 -38 59 146 59 -2383 0 -2076 -2 -2305 -16 -2335 -33 -70 168 -65 -2384 -65 -2529 0 -2345 -5 -2383 59 -16 27 -17 180 -17 2341 0 2115 1 2314 16 2339 9 15 28 35 43 44 24 15 218 16 2339 17 2163 0 2316 -1 2343 -17z" fill="#4e0f53"/>
<path d="M5057 7790 c-46 -14 -93 -56 -116 -103 l-21 -44 2 -1294 3 -1294 24 -38 c13 -21 42 -50 64 -65 l41 -27 1291 -3 1292 -2 54 28 c43 22 59 38 81 81 l28 53 0 1278 0 1278 -28 53 c-22 43 -38 59 -81 81 l-53 28 -1277 -1 c-702 0 -1289 -5 -1304 -9z" fill="#4e0f53"/>
<path d="M16801 9704 c-253 -68 -410 -331 -346 -579 67 -256 329 -415 580 -350 256 67 415 329 350 578 -67 259 -333 419 -584 351z" fill="#4e0f53"/>
<path d="M14881 8744 c-253 -68 -410 -331 -346 -577 22 -85 61 -154 123 -219 59 -63 166 -124 234 -134 21 -4 38 -10 38 -14 0 -4 -17 -10 -38 -14 -69 -11 -175 -71 -235 -135 -60 -62 -113 -159 -123 -223 -8 -49 -20 -48 -28 0 -17 111 -132 259 -244 316 -190 96 -400 65 -554 -82 -63 -59 -124 -166 -134 -234 -8 -49 -20 -49 -28 0 -10 68 -71 175 -134 234 -191 183 -472 183 -663 1 -197 -187 -197 -499 0 -686 191 -182 472 -182 663 1 63 59 124 166 134 234 4 21 10 38 14 38 4 0 10 -17 14 -38 10 -68 71 -175 134 -234 192 -183 472 -183 664 0 63 59 124 166 134 234 8 49 20 49 28 0 11 -69 71 -175 135 -235 62 -60 159 -113 224 -123 48 -8 47 -20 -1 -28 -68 -10 -175 -71 -234 -134 -187 -196 -182 -491 11 -675 191 -182 472 -182 663 1 63 59 124 166 134 234 8 49 20 49 28 0 11 -69 71 -175 135 -235 62 -60 159 -113 224 -123 48 -8 47 -20 -1 -28 -68 -10 -175 -71 -234 -134 -183 -191 -183 -472 -1 -663 184 -193 479 -198 675 -11 63 59 124 166 134 234 4 21 10 38 14 38 4 0 10 -17 14 -38 11 -69 71 -175 135 -235 62 -60 159 -113 224 -123 48 -8 47 -20 -1 -28 -68 -10 -175 -71 -234 -134 -183 -191 -183 -472 -1 -663 187 -197 499 -197 686 0 182 191 182 472 -1 663 -59 63 -166 124 -234 134 -49 8 -49 20 0 28 68 10 175 71 234 134 183 192 183 472 0 664 -59 63 -166 124 -234 134 -49 8 -49 20 0 28 68 10 175 71 234 134 187 196 182 491 -11 675 -191 182 -472 182 -663 -1 -63 -59 -124 -166 -134 -234 -8 -49 -20 -49 -28 0 -10 68 -71 175 -134 234 -192 183 -472 183 -664 0 -63 -59 -124 -166 -134 -234 -8 -49 -20 -49 -28 0 -11 69 -71 175 -135 235 -62 60 -159 113 -223 123 -49 8 -48 20 0 28 68 10 175 71 234 134 183 192 183 472 0 664 -59 63 -166 124 -234 134 -49 8 -49 20 0 28 68 10 175 71 234 134 183 191 183 472 1 663 -118 124 -300 177 -462 133z m1573 -2492 c11 -69 71 -175 135 -235 62 -60 159 -113 224 -123 48 -8 47 -20 -1 -28 -69 -11 -175 -71 -235 -135 -60 -62 -113 -159 -123 -223 -4 -21 -10 -38 -14 -38 -4 0 -10 17 -14 38 -10 64 -63 161 -123 223 -60 64 -166 124 -235 135 -48 8 -49 20 0 28 64 10 161 63 223 123 64 60 124 166 135 235 4 21 10 38 14 38 4 0 10 -17 14 -38z" fill="#4e0f53"/>
<path d="M12001 6824 c-253 -68 -410 -331 -346 -579 67 -256 329 -415 580 -350 256 67 415 329 350 578 -67 259 -333 419 -584 351z" fill="#4e0f53"/>
<path d="M23521 6824 c-253 -68 -410 -331 -346 -579 67 -256 329 -415 580 -350 256 67 415 329 350 578 -67 259 -333 419 -584 351z" fill="#4e0f53"/>
<path d="M25441 6824 c-253 -68 -410 -331 -346 -577 22 -85 61 -154 123 -219 59 -63 166 -124 234 -134 21 -4 38 -10 38 -14 0 -4 -17 -10 -38 -14 -68 -10 -175 -71 -234 -134 -183 -191 -183 -472 -1 -663 187 -197 499 -197 686 0 182 191 182 472 -1 663 -59 63 -166 124 -234 134 -21 4 -38 10 -38 14 0 4 17 10 38 14 69 11 175 71 235 135 60 62 113 159 123 224 8 48 20 47 28 -1 10 -68 71 -175 134 -234 269 -257 703 -133 797 229 65 249 -94 511 -350 578 -158 41 -323 -5 -447 -123 -63 -59 -124 -166 -134 -234 -8 -49 -20 -49 -28 0 -3 21 -21 70 -41 109 -98 197 -334 304 -544 247z" fill="#4e0f53"/>
<path d="M12961 5864 c-253 -68 -410 -331 -346 -577 22 -85 61 -154 123 -219 59 -63 166 -124 234 -134 21 -4 38 -10 38 -14 0 -4 -17 -10 -38 -14 -69 -11 -175 -71 -235 -135 -60 -62 -113 -159 -123 -223 -8 -49 -20 -48 -28 0 -17 111 -132 259 -244 316 -190 96 -400 65 -554 -82 -63 -59 -124 -166 -134 -234 -4 -21 -10 -38 -14 -38 -4 0 -10 17 -14 38 -10 68 -71 175 -134 234 -191 183 -472 183 -663 1 -193 -184 -198 -479 -11 -675 59 -63 166 -124 234 -134 49 -8 49 -20 0 -28 -68 -10 -175 -71 -234 -134 -187 -196 -182 -491 11 -675 190 -182 472 -182 662 0 193 184 198 479 11 675 -59 63 -166 124 -234 134 -48 8 -49 20 0 28 64 10 161 63 223 123 64 60 124 166 135 235 4 21 10 38 14 38 4 0 10 -17 14 -38 10 -68 71 -175 134 -234 192 -183 472 -183 664 0 63 59 124 166 134 234 8 49 20 49 28 0 10 -68 71 -175 134 -234 192 -183 472 -183 664 0 63 59 124 166 134 234 4 21 10 38 14 38 4 0 10 -17 14 -38 10 -68 71 -175 134 -234 196 -187 491 -182 675 11 182 191 182 472 -1 663 -59 63 -166 124 -234 134 -49 8 -49 20 0 28 68 10 175 71 234 134 183 191 183 472 1 663 -184 193 -479 198 -675 11 -63 -59 -124 -166 -134 -234 -8 -49 -20 -49 -28 0 -3 21 -21 70 -41 109 -98 197 -334 304 -544 247z m613 -572 c11 -69 71 -175 135 -235 62 -60 159 -113 224 -123 48 -8 47 -20 -1 -28 -69 -11 -175 -71 -235 -135 -60 -62 -113 -159 -123 -223 -4 -21 -10 -38 -14 -38 -4 0 -10 17 -14 38 -10 64 -63 161 -123 223 -60 64 -166 124 -235 135 -48 8 -49 20 0 28 64 10 161 63 223 123 64 60 124 166 135 235 4 21 10 38 14 38 4 0 10 -17 14 -38z" fill="#4e0f53"/>
<path d="M22561 5864 c-253 -68 -410 -331 -346 -577 22 -85 61 -154 123 -219 59 -63 166 -124 234 -134 21 -4 38 -10 38 -14 0 -4 -17 -10 -38 -14 -69 -11 -175 -71 -235 -135 -60 -62 -113 -159 -123 -223 -8 -49 -20 -48 -28 0 -10 68 -71 175 -134 234 -196 187 -491 182 -675 -11 -182 -191 -182 -472 1 -663 59 -63 166 -124 234 -134 49 -8 49 -20 0 -28 -68 -10 -175 -71 -234 -134 -183 -191 -183 -472 -1 -663 184 -193 479 -198 675 -11 63 59 124 166 134 234 8 49 20 49 28 0 10 -68 71 -175 134 -234 192 -183 472 -183 664 0 63 59 124 166 134 234 8 49 20 49 28 0 10 -68 71 -175 134 -234 192 -183 472 -183 664 0 63 59 124 166 134 234 8 49 20 49 28 0 10 -68 71 -175 134 -234 192 -183 472 -183 664 0 63 59 124 166 134 234 8 49 20 49 28 0 10 -68 71 -175 134 -234 192 -183 472 -183 664 0 63 59 124 166 134 234 8 49 20 49 28 0 10 -68 71 -175 134 -234 191 -183 472 -183 663 -1 193 184 198 479 11 675 -59 63 -166 124 -234 134 -21 4 -38 10 -38 14 0 4 17 10 38 14 68 10 175 71 234 134 187 196 182 491 -11 675 -195 186 -491 180 -674 -12 -182 -191 -182 -472 1 -663 59 -63 166 -124 234 -134 48 -8 49 -20 1 -28 -65 -10 -162 -63 -224 -123 -64 -60 -124 -166 -135 -235 -8 -49 -20 -49 -28 0 -10 68 -71 175 -134 234 -192 183 -472 183 -664 0 -63 -59 -124 -166 -134 -234 -4 -21 -10 -38 -14 -38 -4 0 -10 17 -14 38 -11 69 -71 175 -135 235 -62 60 -159 113 -223 123 -49 8 -48 20 0 28 68 10 175 71 234 134 187 196 182 491 -11 675 -191 182 -472 182 -663 -1 -63 -59 -124 -166 -134 -234 -8 -49 -20 -49 -28 0 -10 68 -71 175 -134 234 -192 183 -472 183 -664 0 -63 -59 -124 -166 -134 -234 -8 -48 -20 -49 -28 0 -10 64 -63 161 -123 223 -60 64 -166 124 -235 135 -21 4 -38 10 -38 14 0 4 17 10 38 14 68 10 175 71 234 134 183 191 183 472 1 663 -118 124 -300 177 -462 133z m-347 -1532 c11 -69 71 -175 135 -235 62 -60 159 -113 224 -123 48 -8 47 -20 -1 -28 -69 -11 -175 -71 -235 -135 -60 -62 -113 -159 -123 -223 -4 -21 -10 -38 -14 -38 -4 0 -10 17 -14 38 -10 64 -63 161 -123 223 -60 64 -166 124 -235 135 -48 8 -49 20 0 28 64 10 161 63 223 123 64 60 124 166 135 235 4 21 10 38 14 38 4 0 10 -17 14 -38z m960 0 c11 -69 71 -175 135 -235 62 -60 159 -113 224 -123 48 -8 47 -20 -1 -28 -69 -11 -175 -71 -235 -135 -60 -62 -113 -159 -123 -223 -4 -21 -10 -38 -14 -38 -4 0 -10 17 -14 38 -10 64 -63 161 -123 223 -60 64 -166 124 -235 135 -48 8 -49 20 0 28 64 10 161 63 223 123 64 60 124 166 135 235 4 21 10 38 14 38 4 0 10 -17 14 -38z m960 0 c11 -69 71 -175 135 -235 62 -60 159 -113 224 -123 48 -8 47 -20 -1 -28 -69 -11 -175 -71 -235 -135 -60 -62 -113 -159 -123 -223 -4 -21 -10 -38 -14 -38 -4 0 -10 17 -14 38 -10 64 -63 161 -123 223 -60 64 -166 124 -235 135 -48 8 -49 20 0 28 64 10 161 63 223 123 64 60 124 166 135 235 4 21 10 38 14 38 4 0 10 -17 14 -38z" fill="#4e0f53"/>
</g>
</svg>