<svg width="221" height="178" viewBox="0 0 221 178" fill="none" xmlns="http://www.w3.org/2000/svg">
<g clip-path="url(#clip0_6772_22418)">
<path d="M134.667 14.6809C136.398 15.9105 138.898 16.5576 140.565 18.046C144.539 20.8934 147.681 24.9704 148.706 29.4357C148.963 29.6298 148.899 30.1475 149.027 30.5358C149.604 32.6714 149.732 34.5481 149.668 36.8131C149.155 39.078 148.899 41.9255 147.681 44.061C147.296 44.8376 146.911 44.2552 146.398 44.061C145.245 43.6727 144.347 43.0256 143.257 42.5079C142.616 44.3846 143.386 46.326 143.45 48.5263C143.578 49.5617 143.898 51.309 144.091 52.4091L143.77 52.7327C142.168 51.0501 140.693 49.8206 139.475 48.3321C139.091 48.3969 138.898 48.7851 138.578 48.9146L136.911 50.0147C136.911 57.3274 136.847 64.7695 136.975 72.0174C138.898 69.0406 140.501 65.8696 142.68 63.0869C143.898 63.2811 144.283 65.093 144.796 66.1285C145.693 67.0992 145.95 68.3935 146.783 69.2994C149.027 68.5876 151.463 67.811 153.899 67.9405C154.732 68.9759 153.129 69.5583 152.873 70.4643C150.565 74.0236 148.963 78.3594 147.681 82.1775C148.578 82.9541 150.565 82.9541 150.052 84.5719C149.86 87.1605 149.027 89.6196 148.578 92.1435C148.129 92.0787 148.45 92.5317 148.257 92.6612C148.257 92.8553 147.937 93.1789 148.129 93.4377C147.36 94.3437 147.36 95.7674 146.655 96.6734C146.334 97.5794 145.95 98.0971 145.629 98.9384C145.18 99.8444 144.283 100.945 143.834 101.98C139.86 107.287 134.475 112.658 128.834 115.117C127.616 115.764 126.783 116.023 125.629 116.67C123.193 117.447 120.308 118.417 117.68 118.935C116.526 118.741 115.821 119.388 114.731 119.194L114.603 119.323C107.872 119.97 101.718 118.806 95.4361 116.476C95.1796 116.088 94.3463 116.023 93.8976 115.635C93.3847 115.764 93.1924 115.182 92.7437 115.246C88.3847 112.852 84.9872 110.005 81.7179 106.316C81.0768 105.733 80.564 105.022 80.0512 104.504C79.923 103.921 79.2819 103.468 78.9614 102.951C78.2563 102.109 78.1281 101.462 77.4229 100.686C76.846 99.5856 76.1409 98.0324 75.5639 97.0617C75.1152 96.3499 74.9229 95.185 74.5383 94.6026C74.1536 93.2436 73.5767 91.4963 72.9998 90.1373L73.1921 89.9432C72.8716 89.2961 72.8716 88.3253 72.5511 87.5488C72.4228 86.8369 72.2305 86.4486 72.1023 85.7368C72.2946 85.0896 72.1023 84.0542 71.91 83.2777C72.3587 82.1775 73.6408 82.3717 74.2177 81.4657C72.8716 77.324 70.6279 72.5999 68.2561 69.1053C68.1279 68.717 68.2561 68.3935 68.5125 68.1993C70.6279 68.4582 72.9998 68.9759 74.7947 69.2347C74.987 69.4289 75.4998 69.4289 75.8203 69.2994C75.8203 69.2347 75.7562 69.17 75.6921 69.17L75.8203 69.2347C76.3332 68.1993 77.1665 67.2286 77.487 66.1285C77.9999 65.6755 78.1281 65.2872 78.2563 64.7048C78.3204 64.5106 78.705 63.9929 78.705 63.7341C79.0255 63.4105 78.7691 62.8928 79.2819 62.7633C80.8845 64.3812 82.0384 66.6462 83.0641 68.717C83.7692 70.076 84.4102 71.5644 85.1154 72.9881L85.3077 72.794V50.2088C84.9231 49.8206 84.3461 49.3028 83.9615 49.3028C83.7692 48.9146 83.3205 48.6557 82.8717 48.2674C81.3974 49.6911 80.0512 51.0501 78.7691 52.4091C78.4486 52.3444 78.1922 52.8621 77.8717 52.4738C77.4229 52.215 77.7434 51.8267 77.7434 51.5031C78.1281 50.6618 78.1922 49.6264 78.2563 48.7204C78.4486 46.8437 78.8973 44.7729 78.6409 42.5726C77.3588 42.702 76.3332 43.8669 75.1152 43.8669C74.6024 43.0903 73.769 42.1843 73.769 41.0842C72.9357 39.4016 72.9357 37.1366 72.8075 35.3246C72.8075 32.6067 73.128 29.1768 74.346 26.7824C76.7819 20.9581 81.5256 15.7163 87.8077 14.6162C88.8334 12.8689 90.0514 11.2511 91.3975 9.5685C98.0002 2.19111 108.385 -0.979869 118.065 1.47926V1.54397C123.385 2.77354 128.065 6.00923 131.911 10.4098C132.808 11.8335 134.091 13.1278 134.667 14.6809ZM111.718 10.8628C111.013 10.7981 110.18 10.7333 109.603 10.9922C105.629 10.9275 101.398 12.9336 98.3848 15.781L98.3207 15.7163C97.9361 16.1046 97.6156 16.4929 97.1028 16.8812L97.1669 16.9459C95.5002 18.6284 94.4104 20.4404 93.7053 22.576C93.7694 23.9997 92.1668 23.4173 91.4616 23.6761C87.1026 24.7763 82.9999 28.2708 82.1666 32.9302L85.1795 33.3832L85.3077 27.9473L85.5 27.8825C87.359 28.8532 88.9616 30.0181 91.0129 30.73C91.2693 29.6298 91.077 28.2708 91.1411 26.9765C91.3334 26.5883 91.3975 26.7824 91.7822 26.5883C93.3206 27.4295 95.3079 28.012 97.0387 27.6237C100.244 27.6237 103.577 25.4234 106.718 25.8117C107.295 25.8764 107.872 25.8117 108.385 26.0058C108.449 26.0058 108.513 26.0058 108.577 25.9411C109.411 26.3941 110.244 26.653 111.077 26.7824C114.603 24.841 118.193 26.3941 121.334 27.6237C121.526 27.6237 121.654 28.012 121.847 27.8178C122.937 28.2708 124.219 28.0767 125.244 28.2708C127.167 28.1414 128.834 26.9765 130.565 26.9118L130.629 30.9888C131.975 30.0828 133.385 29.371 134.603 28.4002C135.373 28.2061 136.206 27.4295 137.039 27.4295L137.168 33.3832C138.321 33.2538 139.475 33.1244 140.629 32.8655C140.373 31.5712 139.86 30.4711 139.283 29.1768C137.616 26.9118 135.821 24.7763 133.065 23.8703C132.424 23.6114 131.783 23.5467 131.27 23.2879C130.629 23.482 130.116 22.8349 129.475 22.9643C128.514 23.0937 128.449 21.9289 127.937 21.4111L128.065 21.3464C126.014 17.3989 122.552 14.1632 118.642 12.4159C118.449 12.4159 118.193 12.0276 118.065 12.3512C117.68 12.0276 117.167 11.8982 116.783 11.8982C115.18 11.0569 113.513 10.9922 111.718 10.8628ZM85.7564 84.2484C85.3077 84.7661 84.4102 84.8955 83.8333 85.3485C83.4487 86.1251 84.1538 86.9663 84.1538 87.6782C84.6025 88.9078 84.7307 90.0079 85.4359 91.0433C85.2436 91.3669 85.7564 91.6905 85.8205 91.8846C86.3333 93.7613 87.4872 95.5733 88.7052 97.1264L88.577 97.1911C89.0898 98.0324 89.859 98.4207 90.2437 99.1326C90.9488 99.9091 91.718 100.945 92.6155 101.656C93.2565 101.786 93.5129 102.304 94.0258 102.757C96.5258 104.374 99.4105 106.186 102.103 106.834C103.513 107.74 105.372 107.74 106.911 108.128C110.244 108.71 114.283 108.451 118.129 107.416C118.449 106.963 119.026 107.287 119.219 106.834C121.142 106.445 123.257 105.539 124.86 104.374C125.244 104.504 125.693 103.921 125.949 103.663L126.014 103.727L126.206 103.533C126.783 103.404 127.231 102.821 127.808 102.498L127.873 102.562C129.796 100.88 131.334 99.6503 132.873 97.5147L133.001 97.5794C133.193 96.8676 134.091 96.6087 134.026 95.8322C134.732 95.2497 134.988 94.3437 135.373 93.6319C136.526 91.8846 137.168 89.749 137.744 87.8723H137.809C137.937 87.0958 138.065 86.3839 138.193 85.6721C137.488 85.1544 136.719 84.8955 135.885 84.5719C134.732 86.4486 134.219 88.4548 133.065 90.202C132.744 90.7197 132.488 91.3022 132.039 91.6905C131.783 91.8846 131.655 92.467 131.526 92.7906C130.373 93.5672 129.796 95.1203 128.834 95.8969L128.706 95.8322L128.449 96.091L128.514 96.2204C128.001 96.4146 127.937 97.1264 127.36 97.1264C126.655 98.356 124.86 98.9384 123.898 100.168L123.77 100.103C122.937 100.88 122.167 101.009 121.27 101.656C120.693 102.109 120.116 102.368 119.539 102.757C118.642 103.339 117.039 103.404 116.206 104.116C114.988 104.439 113.77 104.892 112.552 105.216C111.847 105.216 111.27 105.669 110.565 105.41C110.5 105.345 110.436 105.475 110.372 105.539L110.18 105.41C110.052 105.345 109.988 105.475 109.923 105.539C109.282 105.022 108.193 105.086 107.552 104.892V104.827C107.039 104.892 106.911 104.504 106.398 104.633C106.205 104.18 105.629 104.504 105.5 104.116C104.988 104.504 104.667 103.468 104.282 103.857C104.09 103.468 103.641 103.468 103.321 103.274C102.68 103.598 102.487 102.692 101.975 102.886L101.718 102.627C101.59 102.627 101.398 102.368 101.269 102.627L100.693 102.109C100.564 102.045 100.5 101.98 100.436 102.174C100.18 101.915 99.6028 101.462 99.2182 101.462C98.8977 101.139 98.4489 100.686 97.9361 100.621L97.5515 100.233C95.7566 99.1973 94.0258 97.1264 92.3591 95.8969C91.2693 94.4084 90.2437 93.1789 89.2821 91.7552C88.3847 90.9139 88.1282 89.8785 87.4872 88.8431C87.359 88.3253 87.2949 87.8076 86.8462 87.3546L86.9103 87.2899C86.9103 86.9663 86.6539 86.7075 86.4615 86.5134C86.718 86.2545 86.2692 85.9956 86.2051 85.8015C86.2051 85.3485 85.8846 84.5719 85.7564 84.2484Z" fill="#E73137"/>
<path d="M116.462 1.93203C122.937 3.1616 128.706 6.85029 132.424 12.6745C133.899 13.5805 133.45 16.428 135.565 16.3632C140.694 18.1105 145.694 23.0288 147.553 28.5942C148.642 31.6357 149.027 34.9361 148.642 37.9777C148.258 39.8544 148.001 41.7311 147.04 43.3489C144.86 42.4429 143.001 41.4722 140.822 40.5662C140.822 39.9191 141.206 39.272 141.399 38.6248C142.617 33.5771 140.886 27.6882 136.206 24.5172C134.476 23.3523 132.488 22.3816 130.501 22.2522C130.309 22.1875 129.796 22.1228 129.411 21.9934C127.809 19.3401 126.527 16.8162 124.283 15.0042C118.514 9.76242 109.347 8.46814 102.552 11.8333L102.488 11.7686C101.654 12.351 100.501 12.7393 99.7313 13.5158C96.6544 15.7161 94.0902 18.6282 92.6158 22.3169C91.0773 22.7699 89.3465 23.2876 87.9363 23.9995C84.09 26.3292 81.2695 30.1473 81.0131 34.6126C80.7567 36.4246 81.2695 38.4307 81.59 40.178C79.4746 40.9545 77.3592 41.9899 75.3078 42.5724C72.8719 37.7188 73.1283 31.3769 75.5002 26.5233C77.4233 22.3169 80.6926 18.1105 85.1157 16.428C85.308 16.428 85.6926 16.1691 85.9491 16.0397L88.3209 15.6514C90.244 11.8333 93.1287 8.40343 96.7185 6.07373C98.257 4.77945 100.308 3.80874 102.231 3.35574C104.988 1.86732 108.065 1.67318 111.078 1.34961C112.937 1.34961 114.603 1.60847 116.462 1.93203Z" fill="white"/>
<path d="M115.245 3.87331C115.437 4.64988 114.989 5.23231 114.476 5.6853C114.284 5.62059 114.219 5.75002 114.155 5.81473L114.925 8.14443L114.348 8.07972C113.899 7.30315 114.027 6.1383 113.13 5.6853C112.745 5.6853 112.04 5.55588 112.168 6.20301C112.104 6.78544 112.232 7.56201 111.719 7.82086H111.527C111.719 6.07359 111.719 4.39102 112.04 2.83789C113.13 3.03203 114.54 2.77318 115.245 3.87331Z" fill="#003A78"/>
<path d="M109.603 4.00315L110.116 7.82127C109.988 7.88599 109.924 7.88599 109.796 8.01541C109.219 7.36827 109.732 6.26814 109.155 5.68571C108.321 5.75043 107.36 5.81514 106.783 6.20342C106.719 6.97999 107.36 7.88599 106.911 8.4037C106.334 8.27427 106.655 7.43299 106.334 7.04471C106.206 5.94457 106.014 4.65029 105.821 3.48544C105.885 3.35601 106.142 3.42073 106.27 3.42073C106.526 4.13258 106.334 5.55628 107.296 5.42686C107.744 5.10329 108.642 5.42686 109.155 4.90915L108.834 3.09716C109.668 2.45002 109.283 3.7443 109.603 4.00315Z" fill="#003A78"/>
<path d="M114.603 4.1972C114.603 4.6502 114.411 5.16791 113.898 5.16791C113.449 5.16791 112.744 5.03849 112.36 4.90906C112.552 4.39135 112.296 3.93835 112.616 3.48535C113.257 3.74421 114.347 3.2265 114.603 4.1972Z" fill="white"/>
<path d="M104.091 4.3265L102.873 5.03835C103.257 6.52677 104.091 7.75634 104.411 9.24476L104.027 9.30947C103.385 7.95048 103.001 6.52677 102.167 5.29721C101.719 5.36192 100.95 6.00906 100.693 5.36192C101.719 4.84421 102.873 4.39121 103.962 4.00293L104.091 4.3265Z" fill="#003A78"/>
<path d="M120.18 4.71494C120.949 5.49151 120.5 6.72108 120.372 7.69178C120.052 8.46835 119.154 9.1802 118.321 9.30963C117.488 9.1802 116.59 8.85664 116.398 8.01535C116.205 6.59165 116.526 5.10323 117.872 4.26195C118.706 4.06781 119.539 3.93838 120.18 4.71494Z" fill="#003A78"/>
<path d="M119.795 5.16764C120.115 5.68535 120.18 6.20306 119.987 6.72077C119.795 7.49734 119.218 8.53276 118.321 8.59748C118.064 8.92105 117.68 8.46805 117.359 8.40334C116.718 7.43263 116.974 6.46192 117.487 5.49121C117.872 4.77936 119.282 4.32636 119.795 5.16764Z" fill="white"/>
<path d="M122.937 7.43272C122.36 8.40343 121.206 9.30943 121.527 10.4096C121.975 10.992 122.552 11.2508 123.193 11.1214C124.219 10.2801 124.796 8.92114 125.693 7.95043C125.95 8.01515 126.142 8.20929 125.95 8.46815C124.668 9.43885 124.539 11.898 122.488 11.8333C121.719 11.3156 120.821 10.992 120.886 9.95657C121.206 8.46815 122.488 7.3033 123.193 6.07373C123.963 6.52673 123.001 6.97973 122.937 7.43272Z" fill="#003A78"/>
<path d="M96.6551 8.92077C95.8217 8.92077 95.3089 8.98548 94.8602 9.63262C94.8602 10.0856 95.0525 10.5386 95.5653 10.5386C96.4628 10.4092 97.9371 9.82676 98.6423 10.7328C98.8346 11.121 99.091 11.6388 98.8346 12.1565C98.5782 12.7389 98.2577 13.1272 97.6166 13.386C97.1679 13.5155 96.591 13.5155 96.2704 13.1919C96.2063 13.1272 95.9499 12.8683 96.1422 12.6742C96.5269 12.8683 97.0397 12.9977 97.4884 12.8036C98.0012 12.7389 98.1295 12.2859 98.3859 11.8976C98.3859 11.3799 98.1936 10.9916 97.6807 10.7975C96.6551 10.8622 95.1807 11.7682 94.4114 10.4739C94.0909 9.63262 94.6038 8.98548 95.2448 8.53248C95.6935 8.40306 96.8474 8.20892 96.6551 8.92077Z" fill="#003A78"/>
<path d="M129.667 11.3802C129.795 11.7037 129.667 12.092 129.475 12.4156H129.282C129.218 12.092 129.346 11.7037 129.09 11.3802C128.641 10.6036 127.872 10.5389 127.103 10.7978L126.846 11.0566L126.782 10.9919C126.077 11.639 125.244 12.3509 125.5 13.5804C125.756 13.8393 125.885 14.1629 126.205 14.357C126.846 14.7453 127.295 14.0982 127.744 13.7099C127.487 13.3216 127.103 12.998 126.782 12.6745C126.974 12.545 126.974 12.3509 127.231 12.4156C127.68 12.998 128.321 13.1275 128.449 13.8393C127.744 14.2923 127.167 15.5219 126.013 14.9394C125.564 14.5512 125.115 14.2276 124.923 13.7099C124.603 12.8039 125.18 11.8979 125.628 11.186C126.269 10.4742 127.551 9.82704 128.513 10.1506C129.09 10.28 129.346 10.9272 129.667 11.3802Z" fill="#003A78"/>
<path d="M95.9497 15.2627C96.142 16.1039 95.2445 16.5569 94.6676 17.1394H93.4496L90.4368 14.2272C90.565 14.0978 90.565 13.9037 90.7573 13.7742C91.9112 14.8097 92.6163 16.0392 94.0266 16.5569C94.7958 16.7511 94.924 16.0392 95.3728 15.7157C95.501 14.0331 93.5137 13.3859 92.6163 12.027L92.9368 11.6387C93.8343 12.6741 95.5651 13.7742 95.9497 15.2627Z" fill="#003A78"/>
<path d="M131.975 13.5804C131.655 14.2922 130.181 14.5511 130.565 15.4571C131.078 15.8454 131.463 17.0102 132.232 16.8161C132.745 16.4925 133.193 15.5865 133.834 15.9748V16.2336C132.552 17.2691 131.206 18.1751 129.988 19.2752C129.86 19.0163 129.411 19.0811 129.604 18.6928C129.668 18.6928 129.732 18.6928 129.796 18.5633V18.4339C130.373 18.1751 130.886 17.7868 131.334 17.3338C130.758 16.6866 130.629 15.6512 129.668 15.4571L127.937 16.7514C127.873 16.6219 127.616 16.4925 127.745 16.2336C129.155 15.3924 130.373 14.0981 131.847 13.3862L131.975 13.5804Z" fill="#003A78"/>
<path d="M90.4367 16.105C90.4367 16.2991 90.5008 16.4933 90.3084 16.558C89.7315 16.1697 89.1546 16.2991 88.5776 16.6227C88.3212 16.8168 88.5135 17.2051 88.4494 17.5287C89.5392 18.4347 92.488 17.1404 91.9751 19.6642C91.7828 20.3761 91.3341 20.6997 90.6931 21.0232C89.9879 21.2821 89.4751 20.8938 88.9623 20.5702C89.0264 20.4408 88.8982 20.2467 89.0905 20.182C89.6674 20.3114 90.4367 20.8291 91.0777 20.3114C91.4623 20.1172 91.4623 19.729 91.5264 19.4054C91.4623 18.9524 91.1418 18.5641 90.629 18.5641C89.5392 18.5641 88.5135 18.823 88.0007 17.7228C87.8725 17.2051 87.9366 16.558 88.3853 16.105C88.8982 15.7814 89.9238 15.7814 90.4367 16.105Z" fill="#003A78"/>
<path d="M86.4621 17.334C86.4621 18.1106 85.3082 18.1106 84.7313 18.5635C84.8595 19.146 85.1159 19.6637 85.4364 20.1814C86.0133 19.9873 86.4621 19.5343 87.1031 19.5343C87.039 20.2461 86.0774 20.2461 85.5646 20.6991C86.0133 21.2168 85.9492 21.9934 86.5262 22.317C87.2313 22.2522 87.7441 21.4757 88.4493 21.6051V21.9287C87.7441 22.4464 86.9108 22.7052 86.1415 22.9641C85.4364 21.411 84.539 19.9873 84.0261 18.3694C84.8595 18.1106 85.5646 17.5281 86.4621 17.334Z" fill="#003A78"/>
<path d="M138.064 18.8873C137.743 20.1816 137.166 21.4112 137.038 22.6407C138.256 22.0583 139.089 21.0876 140.307 20.4405C140.564 20.4405 140.692 20.6993 140.948 20.8288C140.051 22.2525 138.961 23.6115 137.936 24.9057C137.615 25.0352 137.679 24.7116 137.551 24.6469C138.384 23.7409 139.089 22.6407 139.859 21.5406H139.474C138.384 22.3172 137.295 23.2879 136.141 23.6762C136.397 22.3819 137.102 20.8935 137.359 19.5345C136.397 20.311 135.692 21.5406 134.795 22.576C134.666 22.6407 134.538 22.4466 134.41 22.3819V22.1878L137.423 18.3696C137.743 18.4343 137.936 18.6285 138.064 18.8873Z" fill="#003A78"/>
<path d="M84.6665 23.6757C84.7306 24.1934 84.4742 24.7111 84.0255 24.97C83.3845 25.1641 82.8716 24.7111 82.4229 24.517C82.487 24.3228 82.2306 24.1934 82.487 24.064C82.9357 24.4523 83.3845 24.517 83.8973 24.4523C84.1537 24.2581 84.2819 23.9346 84.1537 23.6757C83.2563 22.5756 82.4229 21.7343 81.269 20.44L81.5255 20.1812C82.6793 21.4107 83.8332 22.252 84.6665 23.6757Z" fill="#003A78"/>
<path d="M143.771 24.4526L141.335 28.5943C140.566 28.2708 141.399 27.7531 141.463 27.3001L141.591 27.1706C140.758 26.5882 140.309 24.4526 138.899 25.8116L138.578 25.5528C140.117 24.7115 141.912 24.1291 143.643 23.4819C143.899 23.7408 144.091 24.0644 143.771 24.4526Z" fill="#003A78"/>
<path d="M141.912 26.3938C141.399 26.1997 141.014 25.6173 140.822 25.1643C141.591 24.9054 142.36 24.3877 143.13 24.3877L141.912 26.3938Z" fill="white"/>
<path d="M121.078 28.6592C122.296 28.9828 123.898 29.2416 125.245 29.0475L126.655 28.8534V52.5387C122.873 50.5325 117.873 50.5325 114.475 51.3091V51.3738C112.552 51.3738 110.821 54.0918 109.026 52.0857C106.142 50.4031 102.295 50.3384 99.0903 51.2444C97.8082 51.6974 96.5261 52.2151 95.244 52.6681L95.1799 28.8534C96.5902 28.5298 98.321 28.7239 99.8595 28.2709C101.654 27.6885 103.834 27.0414 105.757 26.9767C106.462 26.7825 107.36 26.7825 108.129 26.9767C108.962 27.2355 109.731 27.7532 110.501 28.0768C113.385 26.2001 116.975 26.5884 119.924 28.3357C120.309 28.4651 120.757 28.4004 121.078 28.6592Z" fill="white"/>
<path d="M80.8847 29.1116C81.013 29.9529 80.7565 30.6648 80.1796 31.3119C79.0257 31.959 77.7437 31.4413 76.6539 30.7942C76.2052 30.5353 75.8206 29.9529 75.8206 29.3705C75.8847 28.6586 76.1411 28.0115 76.7821 27.6232C78.1924 27.0408 80.1155 27.8173 80.8847 29.1116Z" fill="#003A78"/>
<path d="M146.784 28.9823C146.912 29.6941 147.233 30.5354 146.528 31.1178C146.143 31.2473 145.31 31.5708 144.925 31.2473C144.028 30.2118 143.515 32.0885 142.617 32.4121C142.425 32.4768 142.361 32.218 142.361 32.0885C142.81 31.2473 143.451 30.7943 144.156 30.1471C144.092 29.6941 144.092 29.1117 143.515 29.047L141.72 29.6294L141.464 29.1764C143.066 28.594 144.733 28.2057 146.336 27.688L146.784 28.9823Z" fill="#003A78"/>
<path d="M80.4363 29.565C80.4363 30.1474 80.244 30.7298 79.6671 30.924C78.9619 31.0534 78.3209 30.7945 77.6157 30.6651C77.3593 30.2768 76.526 30.1474 76.3978 29.565C76.2696 29.2414 76.3337 28.7884 76.4619 28.4648C77.4234 27.753 78.4491 28.3354 79.4747 28.4648C79.8594 28.7884 80.3081 29.0473 80.4363 29.565Z" fill="white"/>
<path d="M128.962 53.4445L128.898 28.4002L129.667 28.0767V53.6387L128.962 53.4445Z" fill="white"/>
<path d="M92.8715 28.4649L92.9356 53.7033C92.6151 53.7033 92.4228 54.0916 92.1023 53.9622V28.3354C92.2946 28.5296 92.6151 28.3354 92.8715 28.4649Z" fill="white"/>
<path d="M109.796 28.7237C109.988 28.7237 109.283 29.112 109.796 29.3709C109.668 29.4356 109.219 29.112 109.027 29.565C109.027 29.5003 109.155 28.8532 108.77 28.9826L108.642 28.8532C109.027 28.9826 109.347 28.7237 109.219 28.3354C109.347 28.5943 109.475 28.8532 109.796 28.7237Z" fill="#E73137"/>
<path d="M112.743 28.9826C112.615 29.0473 112.487 29.0473 112.359 29.1767C112.487 29.3062 112.423 29.5003 112.423 29.6297C112.423 29.5003 112.231 29.3709 112.167 29.2414L111.59 29.4356C111.846 29.1767 111.846 28.8532 111.59 28.659C111.718 28.7237 111.91 28.7237 112.038 28.7237L112.295 28.3354C112.102 28.7237 112.551 28.9826 112.743 28.9826Z" fill="#E73137"/>
<path d="M146.335 29.4354C146.463 29.8237 146.399 30.2767 146.078 30.6003C145.566 30.9886 144.925 30.6003 144.796 30.0178L144.476 28.7883C145.181 28.4647 146.463 28.0764 146.335 29.4354Z" fill="white"/>
<path d="M128.128 53.1851C127.872 53.2498 127.679 53.1204 127.487 52.9262V28.7232C127.679 28.5291 127.872 28.5938 128.128 28.4644V53.1851Z" fill="white"/>
<path d="M94.2191 28.7883V53.1208C94.0909 53.3149 93.8986 53.3796 93.7063 53.3149V28.7236C93.8345 28.8531 94.0268 28.7883 94.2191 28.7883Z" fill="white"/>
<path d="M106.719 29.4356L107.039 29.3709C107.167 29.3062 106.783 29.8886 107.167 30.0181C107.103 29.9534 106.911 29.9534 106.719 29.9534L106.398 30.3416C106.398 30.0828 106.462 29.6945 106.142 29.7592H105.949C106.334 29.8239 106.526 29.3709 106.398 29.0474C106.462 29.1768 106.655 29.3062 106.719 29.4356Z" fill="#E73137"/>
<path d="M115.501 29.759H115.629C115.373 29.759 115.18 29.9531 115.116 30.2767C115.052 30.212 114.796 29.6942 114.347 29.9531C114.667 29.8884 114.796 29.5648 114.603 29.3707L114.539 29.2412C114.667 29.306 115.18 29.5648 115.244 29.1118C115.244 29.1765 115.18 29.6942 115.501 29.759Z" fill="#E73137"/>
<path d="M117.68 30.6651C117.872 30.7298 117.36 31.1181 117.872 31.377C117.616 31.3122 117.231 31.2475 117.167 31.7005C117.231 31.377 117.039 31.0534 116.783 31.0534H116.59C116.847 30.9887 117.231 30.8592 117.103 30.4062C117.167 30.6651 117.488 30.8592 117.68 30.6651Z" fill="#E73137"/>
<path d="M104.604 30.9239L104.988 31.2475C104.668 31.1828 104.347 31.3769 104.347 31.7005C104.347 31.7005 104.155 31.0534 103.706 31.3122C104.027 31.2475 104.091 30.7945 103.962 30.6004C104.155 30.5356 104.219 30.9886 104.411 30.7298L104.668 30.5356C104.604 30.6651 104.732 30.7945 104.604 30.9239Z" fill="#E73137"/>
<path d="M112.167 31.0535C112.808 31.9595 113.001 32.7361 113.385 33.7715C113.898 33.5774 114.219 32.8655 114.86 32.6714C115.373 32.6067 115.757 32.5419 116.206 32.8655L116.334 32.8008C116.462 33.1244 116.911 33.5774 116.462 34.0304C116.27 34.0951 116.078 34.2892 115.95 34.0951C115.629 33.8362 115.885 33.1891 115.373 33.2538C114.86 33.8362 114.86 34.8069 114.667 35.5835L114.539 38.6251C113.321 38.1073 114.219 36.5542 114.091 35.5188C114.219 34.8069 114.411 34.0304 114.732 33.3832L114.603 33.2538C113.321 34.3539 113.257 36.1659 113.449 37.8485C113.193 38.2368 112.937 37.6543 112.68 37.6543C112.424 35.3246 113.385 32.7361 111.526 30.9888C110.693 30.5358 110.18 31.3124 109.731 31.8301C109.155 33.4479 109.347 35.7129 109.283 37.5896C109.09 37.7191 108.898 37.7838 108.77 37.9779C108.449 37.2013 108.706 36.0365 108.514 35.1305C108.257 34.4834 108.193 33.5774 107.424 33.2538C107.103 33.5127 107.552 33.8362 107.68 34.1598C108.129 35.4541 108.001 37.1366 108.001 38.3662C107.744 38.3662 107.68 38.7545 107.424 38.6251C107.424 36.6189 107.616 34.8069 106.655 33.1891C106.013 33.1244 106.398 33.6421 106.206 34.0304C105.885 34.0304 105.501 34.0304 105.437 33.7068C105.18 33.3832 105.565 33.1244 105.629 32.8655C106.398 32.2184 107.103 32.7361 107.808 32.9949L108.578 33.7715C109.09 32.7361 109.283 30.9241 110.821 30.5358C111.398 30.3417 111.719 30.7947 112.167 31.0535Z" fill="#003A78"/>
<path d="M75.629 31.8296C75.5649 32.2826 75.5008 32.8003 75.5008 33.318L79.8598 33.9652C79.7316 34.0946 79.7957 34.2887 79.7957 34.4829C78.3855 34.224 76.9111 34.0946 75.3726 33.9652C75.2444 34.4181 75.3726 35.13 74.988 35.3241H74.7957L75.2444 31.8296H75.629Z" fill="#003A78"/>
<path d="M147.617 32.865C147.489 33.8357 146.335 33.7063 145.758 34.3535L145.886 34.8065L147.681 35.6477C147.617 35.9066 147.937 36.036 147.681 36.2302C146.014 35.6477 144.796 34.2887 142.681 34.9359C142.617 34.8065 142.489 34.6123 142.553 34.4182C144.54 34.8712 145.95 33.4475 147.553 32.6709L147.617 32.865Z" fill="#003A78"/>
<path d="M103.513 33.3829H103.641C103.513 33.4477 103.385 33.5771 103.257 33.7065L103.385 34.0948C103.192 33.9007 102.872 33.6418 102.551 33.9654C102.616 33.7712 102.808 33.7065 102.744 33.4477L102.487 33.2535C102.808 33.2535 103.128 33.2535 103.128 32.8652C103.257 32.9299 103.128 33.4477 103.513 33.3829Z" fill="#E73137"/>
<path d="M118.835 33.318L119.219 33.2533C118.835 33.3827 119.027 33.9004 119.091 34.0298C118.899 33.6415 118.514 34.0298 118.386 34.1593C118.514 34.0298 118.45 33.9004 118.45 33.7063C118.322 33.5768 118.13 33.5768 118.001 33.3827C118.258 33.4474 118.707 33.318 118.514 32.9297C118.578 33.0591 118.707 33.1885 118.835 33.318Z" fill="#E73137"/>
<path d="M102.808 35.7128H103.128C102.808 35.9069 102.743 36.2305 102.936 36.4893C102.743 36.4893 102.679 36.1658 102.423 36.2952L102.166 36.4893C102.166 36.2952 102.295 35.9069 101.846 35.8422C102.231 35.9069 102.487 35.5833 102.487 35.2598C102.615 35.4539 102.487 35.8422 102.808 35.7128Z" fill="#E73137"/>
<path d="M119.411 35.9071H119.667C119.411 35.9718 119.219 36.2954 119.411 36.619C119.09 36.2954 118.834 36.2954 118.514 36.4896C118.77 36.2954 118.77 36.0366 118.449 35.8424C118.578 35.9071 119.155 35.7777 119.09 35.3247C119.219 35.5188 119.09 35.8424 119.411 35.9071Z" fill="#E73137"/>
<path d="M138.834 40.4366C139.668 41.6661 141.206 41.3426 142.104 42.2486C142.04 42.6368 142.168 43.0898 141.975 43.4781C142.552 43.737 141.911 44.2547 142.232 44.7077C142.424 45.8078 142.36 47.2963 142.681 48.4611C142.36 49.1082 143.065 49.6907 142.937 50.4672L142.873 50.5319C141.591 49.173 140.693 48.1375 139.155 47.1668C138.45 47.7493 137.809 48.5905 136.975 48.9141V37.395C137.616 38.301 138.386 39.4012 138.834 40.4366Z" fill="white"/>
<path d="M102.36 37.913C102.424 37.7835 102.617 37.8482 102.745 37.8482C102.296 38.0424 102.552 38.3012 102.617 38.6248C102.488 38.5601 102.232 38.1718 102.04 38.5601L101.783 38.7542C102.04 38.4954 101.719 38.0424 101.463 37.9777C101.975 38.1718 101.975 37.7188 102.04 37.46C102.104 37.5894 102.168 37.7835 102.36 37.913Z" fill="#E73137"/>
<path d="M119.924 38.1716C119.796 38.2363 119.668 38.2363 119.54 38.3657C119.668 38.4951 119.604 38.6893 119.604 38.8187C119.604 38.6893 119.411 38.5598 119.283 38.4304L118.77 38.6245C119.027 38.3657 119.027 38.0421 118.77 37.848C118.898 37.9127 119.091 37.9127 119.219 37.9127L119.475 37.5244C119.283 37.9127 119.732 38.1716 119.924 38.1716Z" fill="#E73137"/>
<path d="M85.1796 37.7835C85.1796 41.4722 85.2437 45.2903 85.1155 48.979C84.218 48.3966 84.0257 47.5553 82.936 47.3612V47.2964C82.4872 46.9729 82.1026 47.7494 81.718 47.9436V48.1377C81.6539 48.1377 81.5257 48.073 81.5257 48.2024V48.3319C81.3975 48.3319 81.3334 48.3319 81.2693 48.4613V48.5907C81.2052 48.5907 81.0769 48.5907 81.0128 48.6554V48.8496C80.9487 48.8496 80.8846 48.7849 80.8205 48.9143V49.0437C80.7564 49.1084 80.6923 49.0437 80.6282 48.979C80.5 49.0437 80.6282 49.1731 80.5641 49.3026C80.5 49.3026 80.4359 49.2379 80.4359 49.2379C80.3077 49.2379 80.3718 49.3673 80.3718 49.432C80.2436 49.432 80.1795 49.432 80.1154 49.4967C79.9231 49.7556 79.6026 50.0791 79.4744 50.4027C79.4103 50.4027 79.282 50.338 79.282 50.4674V50.5969C79.0897 50.5321 78.8333 50.4674 79.0256 50.2086C79.1538 47.5553 79.7949 45.2256 79.5385 42.184C80.7564 41.6016 82.1667 41.2133 83.1924 40.4368L83.1283 40.3073C83.7693 39.3366 84.3462 38.4954 84.9873 37.5894C85.0514 37.5894 85.1155 37.7188 85.1796 37.7835Z" fill="white"/>
<path d="M113.129 39.4015C113.193 39.7251 113.065 40.0487 112.745 40.1781C112.424 40.2428 112.103 40.1134 111.975 39.7898C111.911 39.4662 112.039 39.1427 112.36 39.0132C112.68 38.9485 113.001 39.078 113.129 39.4015Z" fill="#E73137"/>
<path d="M110.051 39.466C110.115 39.7896 109.987 40.1131 109.667 40.2426C109.346 40.3073 109.026 40.1778 108.897 39.8543C108.833 39.5307 108.961 39.2071 109.282 39.0777C109.603 39.013 109.923 39.1424 110.051 39.466Z" fill="#E73137"/>
<path d="M108.192 39.8542C108.256 40.1777 108.128 40.5013 107.807 40.6307C107.487 40.6954 107.166 40.566 107.038 40.2425C106.974 39.9189 107.102 39.5953 107.423 39.4659C107.743 39.4012 108.064 39.5306 108.192 39.8542Z" fill="#E73137"/>
<path d="M114.925 39.8542C114.989 40.1777 114.861 40.5013 114.54 40.6307C114.22 40.6954 113.899 40.566 113.771 40.2425C113.707 39.9189 113.835 39.5953 114.156 39.4659C114.476 39.4012 114.797 39.5306 114.925 39.8542Z" fill="#E73137"/>
<path d="M110.885 42.7665C111.654 42.2488 112.231 41.1487 113.193 41.2134C113.577 42.7018 112.808 45.2904 114.86 46.067L114.988 45.9375C114.347 44.6432 113.577 42.9607 114.475 41.4723C114.603 41.4723 114.731 41.2781 114.924 41.3428C115.501 41.99 114.795 42.7665 114.603 43.349C114.411 44.1903 114.475 45.0962 115.116 45.6787C115.629 45.8081 116.078 45.4198 116.206 46.0022L116.142 46.067C116.398 46.4552 116.719 46.067 116.975 46.0022C117.103 45.7434 117.36 45.614 117.36 45.2904C117.103 45.2257 116.654 45.2904 116.526 44.8374C116.462 44.6432 116.59 44.5138 116.783 44.4491C117.167 44.4491 117.36 44.708 117.552 45.0315C117.68 45.5492 117.36 46.0022 116.847 46.3258C115.949 46.1964 115.116 47.0377 114.347 46.1964C113.257 44.9668 112.616 43.2843 112.616 41.7958C112.039 41.99 111.526 42.443 111.142 43.0254C111.398 43.8667 112.103 44.708 111.59 45.614C111.462 45.8081 111.27 46.1964 110.949 46.067C110.565 46.1317 110.436 45.6787 110.308 45.4198C110.18 44.6432 110.372 43.8667 110.821 43.2195C110.629 42.443 110.052 42.1194 109.411 41.7311C109.026 43.6078 108.706 46.2611 106.398 46.5847C105.757 46.1964 104.795 46.3905 104.411 45.4845C104.475 45.0315 104.282 44.7727 104.667 44.4491C104.923 44.3197 105.308 44.3844 105.436 44.708C105.372 45.0962 104.923 45.161 104.603 45.2257C104.539 45.614 104.923 45.9375 105.18 46.067L105.629 46.1964C105.5 45.9375 105.949 45.6787 106.013 45.5492C106.27 45.6787 106.526 45.614 106.782 45.614C107.424 45.0315 107.552 44.0608 107.359 43.2195C107.039 42.7018 106.654 42.1194 106.911 41.4076C107.039 41.3428 107.167 41.2134 107.359 41.2781C108.641 42.6371 107.616 44.5785 107.039 45.9375C107.616 46.1317 107.808 45.2257 108.257 45.0315C108.834 43.7373 108.513 42.3783 108.834 41.084C109.603 41.1487 110.308 42.0547 110.885 42.7665Z" fill="#003A78"/>
<path d="M111.462 44.5137C111.398 45.0314 111.526 45.6138 111.077 45.8727C110.629 45.9374 110.629 45.4197 110.5 45.1608C110.565 44.5784 110.629 43.8665 111.077 43.543L111.462 44.5137Z" fill="white"/>
<path d="M111.077 45.614C110.244 45.2904 111.013 44.3197 110.949 43.8667C111.141 44.3844 111.526 45.0963 111.077 45.614Z" fill="#003A78"/>
<path d="M111.077 45.2908L110.949 45.4202V44.3848C111.077 44.5789 111.206 45.0319 111.077 45.2908Z" fill="white"/>
<path d="M102.936 45.291C102.68 45.6793 102.487 45.9381 102.039 45.9381C101.974 45.744 101.846 45.6146 102.039 45.4204C102.359 45.291 102.744 44.7733 102.936 45.291Z" fill="#003A78"/>
<path d="M102.808 45.2903C102.616 45.4844 102.359 45.808 102.039 45.808C102.039 45.5491 102.551 45.0314 102.808 45.2903Z" fill="white"/>
<path d="M119.667 45.6788C119.539 45.42 119.219 45.3553 119.026 45.42L119.539 46.0024C119.475 45.873 119.283 45.9377 119.155 45.9377C118.898 46.0671 119.283 46.1966 119.219 46.326L119.411 46.4554C118.962 46.326 118.706 46.1966 118.449 45.873L119.155 45.8083C119.283 45.42 118.578 45.5494 118.898 45.1611C119.155 45.3553 119.603 45.42 119.667 45.6788Z" fill="#003A78"/>
<path d="M103 46.3905C103.256 46.7141 103.384 46.1964 103.641 46.2611C103.897 46.6494 103.128 46.7141 103 47.0377L103.513 46.5847C103.32 46.4552 103.064 46.7141 102.807 46.7141C102.807 46.52 103.064 46.3258 102.872 46.1964L102.423 46.4552L103.256 45.8081C103.384 46.0022 103.128 46.1964 103 46.3905Z" fill="#003A78"/>
<path d="M118.77 46.8432L118.834 47.3609C118.578 47.0373 118.065 46.7137 118.258 46.2607L119.155 46.7785L118.77 46.8432Z" fill="#003A78"/>
<path d="M103.898 47.3613L104.026 47.4907L104.475 47.0377C104.282 47.3613 104.026 47.6201 103.705 47.879C103.898 47.7496 103.705 47.426 103.898 47.2966C103.641 47.0377 103.513 47.426 103.321 47.426L104.09 46.6494C104.026 46.8436 103.962 47.1024 103.898 47.3613Z" fill="#003A78"/>
<path d="M118.642 46.7136V46.7783L118.449 46.6489C118.514 46.5842 118.578 46.6489 118.642 46.7136Z" fill="white"/>
<path d="M118.513 47.5556L117.68 46.8438L118.321 47.3615L118.513 47.5556Z" fill="#003A78"/>
<path d="M118.129 47.9436C118.129 48.0083 117.232 47.4906 117.617 48.2024L116.976 47.5553C117.168 47.4258 117.296 47.167 117.553 47.167C117.617 47.62 118.001 47.5553 118.129 47.9436Z" fill="#003A78"/>
<path d="M104.09 48.1379L104.795 47.3613C104.731 47.6849 104.347 47.9438 104.09 48.1379Z" fill="#003A78"/>
<path d="M117.552 47.7498C117.488 47.6851 117.424 47.7498 117.36 47.8145L117.295 47.5557H117.552V47.7498Z" fill="white"/>
<path d="M105.373 49.044C105.309 48.8499 105.565 48.591 105.245 48.5263C105.181 48.5263 105.053 48.591 104.989 48.6557L104.86 48.591L105.63 47.8145C105.694 48.138 105.63 48.591 105.373 49.044Z" fill="#003A78"/>
<path d="M117.36 48.6555C117.232 48.8496 117.039 48.2025 116.847 48.6555C116.975 48.7202 116.911 48.8496 116.911 48.979C116.847 48.6555 116.462 48.2672 116.591 47.8789C116.975 48.073 117.168 48.3966 117.36 48.6555Z" fill="#003A78"/>
<path d="M105.565 48.2665H105.437L105.501 48.1377C105.565 48.1377 105.628 48.2021 105.565 48.2665Z" fill="white"/>
<path d="M106.655 48.3321C106.783 48.7203 106.526 49.1733 106.142 49.3675C105.949 49.4322 105.885 49.2381 105.757 49.2381L106.206 48.2026C106.334 48.3321 106.526 48.2026 106.655 48.3321Z" fill="#003A78"/>
<path d="M116.461 49.1089L116.077 48.7206L116.013 49.2383L115.628 48.9147C115.372 49.1736 115.82 49.303 115.756 49.6266C115.628 49.303 115.051 48.85 115.308 48.5264C115.5 48.4617 115.692 48.9794 115.949 49.0441V48.2676C116.205 48.4617 116.333 48.9147 116.461 49.1089Z" fill="#003A78"/>
<path d="M106.398 48.4619C106.462 48.7208 106.398 48.9796 106.206 49.2385H105.949C106.014 48.9149 106.142 48.5266 106.398 48.4619Z" fill="white"/>
<path d="M107.423 49.8208C107.423 49.9502 107.167 49.8855 107.038 49.8855V49.4972C107.167 49.6267 107.167 49.8208 107.359 49.7561L107.743 48.8501C107.743 49.0442 107.615 49.4972 107.423 49.8208Z" fill="#003A78"/>
<path d="M114.924 49.8849C114.796 49.8849 114.668 49.4319 114.347 49.626C114.219 49.6908 114.347 49.8849 114.283 50.079C114.283 49.6908 113.642 49.173 114.219 48.9142C114.86 48.7848 114.604 49.7555 114.924 49.8849Z" fill="#003A78"/>
<path d="M108.512 49.0437C108.512 49.1084 107.935 48.979 108.128 49.3673L108.448 49.6261C108.256 49.3673 108 49.6909 108 49.8203C107.935 50.0144 108.064 50.2086 108.192 50.2086C108.256 50.2733 108 50.0791 107.871 50.1439C107.871 49.6909 107.871 49.432 108.128 48.979L108.512 49.0437Z" fill="#003A78"/>
<path d="M114.475 49.3026C114.411 49.1731 114.283 49.2379 114.219 49.2379L114.347 48.979C114.539 49.0437 114.411 49.1731 114.475 49.3026Z" fill="white"/>
<path d="M109.283 49.4325C109.283 49.4972 109.283 49.1089 109.027 49.2383C108.834 49.5619 109.796 50.4679 108.834 50.2737C108.77 50.209 108.642 50.209 108.642 50.0796C108.706 50.0149 109.347 50.5326 109.219 49.8855C109.027 49.6913 108.642 49.4325 108.899 49.1089C109.155 49.2383 109.283 48.9795 109.347 49.303C109.411 49.3677 109.347 49.4325 109.283 49.4325Z" fill="#003A78"/>
<path d="M113.513 49.1089C113.513 49.3677 113.193 49.2383 113.321 49.4972L113.449 49.6913C113.513 49.5619 113.641 49.6266 113.77 49.6266C113.641 49.5619 113.513 49.6913 113.449 49.756V50.1443H113.77C113.705 50.209 113.641 50.209 113.705 50.2737C113.193 50.2737 113.321 49.4325 113.193 49.1089H113.513Z" fill="#003A78"/>
<path d="M113.001 49.6909C112.872 50.0144 112.296 49.9497 112.552 50.4027H112.36C112.744 49.9497 111.847 48.8496 113.001 49.3026V49.6909Z" fill="#003A78"/>
<path d="M111.142 49.8847C111.077 49.6905 111.526 49.5611 111.27 49.367H111.526V50.4024L111.462 49.6258C111.206 49.7552 111.206 50.1435 111.142 50.4671C111.013 50.1435 111.013 49.7552 110.821 49.4964L110.693 50.4671L110.757 49.3022C111.206 49.367 110.757 49.6905 111.142 49.8847Z" fill="#003A78"/>
<path d="M109.988 50.4678C110.437 50.209 110.052 49.6912 110.309 49.3677C110.501 49.756 110.245 50.0795 110.181 50.4678C109.988 50.4678 109.668 50.4678 109.668 50.1442L109.732 49.3677C109.732 49.5618 109.668 50.209 109.988 50.4678Z" fill="#003A78"/>
<path d="M112.808 49.4971V49.6912H112.616V49.3677C112.68 49.3677 112.744 49.4971 112.808 49.4971Z" fill="white"/>
<path d="M108.834 53.1852H97.1028C98.1925 52.4087 99.6028 52.0204 100.949 51.891C101.141 51.5674 101.462 51.8262 101.782 51.6321C104.218 51.2438 106.59 52.2145 108.834 53.1852Z" fill="white"/>
<path d="M125.693 53.2504H112.616C114.154 52.1502 116.077 52.0208 117.936 51.6972C120.308 51.6325 123.449 51.9561 125.693 53.2504Z" fill="white"/>
<path d="M118.384 65.0926C118.384 67.0987 118.64 68.7812 117.743 70.7874C117.999 71.4992 117.102 71.8875 117.166 72.4052C116.268 73.3112 115.948 74.5408 114.986 75.3174L114.922 75.2526C114.474 75.7056 113.961 76.2233 113.384 76.7411C112.871 77.3882 111.525 77.1941 111.653 78.3589H127.102L127.038 81.2063C126.461 81.1416 126.012 81.0769 125.563 81.0122L125.499 81.0769L120.627 80.9475L120.499 80.7533C117.999 80.7533 114.922 80.5592 112.038 80.5592L111.653 81.0122V87.8719C110.948 87.8719 110.243 87.2247 109.538 86.9659V81.0122L109.345 80.818L98.063 80.5592L100.307 78.3589H109.538C109.538 70.9168 109.473 63.41 109.602 55.9679C111.076 55.709 112.486 56.8739 113.832 57.7152C115.948 59.4624 117.935 62.1157 118.384 65.0926Z" fill="white"/>
<path d="M115.373 65.8046L116.719 68.3932L116.462 68.9109C114.86 70.464 113.45 72.3407 111.719 73.6997V59.6568C111.975 59.3332 112.232 59.5274 112.296 59.5921L115.373 65.8046Z" fill="#E73137"/>
<path d="M146.143 70.3347C148.194 69.6876 150.694 68.9757 152.745 68.8463C152.745 68.9757 152.617 68.9757 152.553 69.1052L152.681 69.1699C150.245 72.8586 148.579 77.065 147.04 81.0772C147.168 81.142 147.04 81.2714 147.104 81.4008C147.04 81.3361 146.976 81.4008 146.912 81.4655V81.7244C144.155 80.4301 141.591 78.8123 138.771 77.7121C138.258 78.1004 137.809 78.3593 137.617 78.877C137.489 78.877 137.425 78.877 137.36 78.9417V79.1358H137.232C136.976 77.6474 137.04 75.9001 137.168 74.347C139.027 71.1113 140.822 67.6815 142.937 64.5752C144.155 66.3872 144.861 68.5875 146.143 70.3347Z" fill="white"/>
<path d="M81.9745 68.1989C83.1283 70.4639 84.0899 72.8583 84.9873 75.0586C84.6027 75.5116 85.372 75.5116 85.1797 75.9646C85.2438 76.9353 85.5002 77.906 85.1797 79.0709C84.3463 78.6826 83.6412 77.7766 82.936 77.2589C80.2437 78.0354 77.7436 79.7827 75.1154 81.077C74.7308 80.9476 75.1795 80.7534 74.9231 80.624C73.5769 76.6764 72.0384 73.1819 69.8589 69.6226C70.3717 69.4285 71.2051 69.6226 71.8461 69.752C72.9359 69.9462 73.4487 70.0109 74.4102 70.4639C74.6026 70.205 74.7949 70.658 74.9231 70.658C75.3077 70.5286 75.8205 70.9169 76.2051 70.4639C77.359 68.5872 78.5129 66.4516 79.6667 64.6396C80.5642 65.6751 81.1411 67.0341 81.9745 68.1989Z" fill="white"/>
<path d="M93.4492 69.777C92.9364 73.0774 92.8082 76.4425 93.321 79.937C92.68 80.2606 91.9107 79.8076 91.3979 79.4193C89.8594 78.3839 88.6414 76.3778 88.8337 74.4364C89.1543 72.4302 90.4363 70.6182 92.2953 69.9064C92.68 69.9064 93.1287 69.6475 93.4492 69.777Z" fill="white"/>
<path d="M81.2048 71.1762C81.7817 72.4058 82.0382 74.1531 81.2689 75.4473C80.8843 75.6415 81.1407 76.1592 80.7561 76.3533L80.8202 76.4181C80.5638 76.5475 80.4356 76.6769 80.115 76.6122C80.3715 75.7709 80.8843 74.6061 80.5638 73.5706C79.9868 73.9589 79.2817 74.2178 78.6407 73.8295C77.9996 72.9882 77.1663 71.8881 77.7432 70.7232C78.256 69.8819 79.0253 69.7525 79.9868 69.9467L81.2048 71.1762Z" fill="#003A78"/>
<path d="M99.3461 73.8538C99.7307 76.3129 98.5768 78.5132 96.7819 79.678C96.5255 79.4839 96.2691 79.8722 96.0768 79.9369C95.3075 79.678 96.205 78.772 95.9486 78.1896C96.2691 75.5363 96.2691 72.6889 95.9486 70.0356C97.6153 70.6181 98.7691 72.0418 99.3461 73.8538Z" fill="white"/>
<path d="M80.1794 72.535C80.1794 72.7292 80.3076 73.1174 79.987 73.1174C79.0255 72.6644 78.705 71.4996 78.6409 70.5289C79.7947 70.2053 79.5383 71.9526 80.1794 72.535Z" fill="white"/>
<path d="M143.322 71.3055C143.642 71.8879 143.001 72.1468 143.001 72.6645L141.912 73.1822C142.232 74.1529 142.489 74.6706 141.912 75.5766C141.271 76.4179 140.501 76.7415 139.54 76.6121C139.283 76.5474 139.091 76.1591 138.835 76.4179C138.642 76.0944 138.322 76.0944 138.13 75.7708C138.065 75.5119 138.258 75.3178 138.45 75.2531C139.347 74.9295 139.155 76.3532 140.053 76.1591C140.565 75.7061 140.95 74.9942 141.014 74.2824C140.886 73.6999 139.732 73.4411 140.181 72.9234C140.758 73.1822 141.335 72.7292 141.783 72.5998C141.912 72.2115 142.168 71.4997 141.591 71.1761C141.271 70.6584 140.95 71.1761 140.565 71.0467C140.437 70.982 140.437 70.8525 140.437 70.7878C141.271 70.1407 143.001 70.2054 143.322 71.3055Z" fill="#003A78"/>
<path d="M75.3074 71.758C76.3331 73.4405 76.7818 75.5761 78.2562 76.9351C78.4485 76.8704 78.6408 76.8704 78.769 77.1292L76.5895 78.3588C75.8844 78.0999 76.8459 77.7764 76.6536 77.3234C76.1408 76.0938 75.4356 74.8642 74.8587 73.6994C74.4741 73.57 74.3459 74.2171 74.0895 73.8288C73.8971 73.2464 74.9228 72.7934 74.5382 71.9521C74.7946 71.8227 74.9869 71.3697 75.3074 71.758Z" fill="#003A78"/>
<path d="M147.873 72.7931L148.002 72.9873C147.489 73.1814 147.425 74.2816 146.72 73.7638C146.335 73.8933 145.438 72.7931 145.181 73.7638C145.822 74.6698 146.72 75.5111 146.271 76.7407C146.143 77.5173 145.373 77.9055 144.797 78.2938C144.155 78.2291 143.45 78.3585 142.873 78.1644C142.681 77.9055 142.232 77.7761 142.361 77.3231C142.617 76.9995 142.873 77.2584 143.066 77.1937C143.579 77.3878 143.707 78.2291 144.476 77.9055C145.053 77.582 145.438 76.8054 145.181 76.0935C145.117 75.4464 143.899 74.7993 144.027 74.0874L145.95 72.146C146.527 72.4696 147.104 72.8578 147.873 72.7931Z" fill="#003A78"/>
<path d="M82.1662 78.7476C82.1021 81.9185 82.615 83.9247 82.9355 86.5779C82.8714 87.5487 83.8329 88.3899 83.5765 89.3607C84.1534 90.2666 84.3458 91.2373 84.9227 92.1433C84.6022 92.5316 85.4996 92.6611 85.0509 92.9846C85.8201 93.3082 85.3714 94.2789 86.0765 94.6025C85.8842 95.1849 86.7817 95.3143 86.5894 95.8968C86.7817 96.0909 87.4227 96.5439 87.2945 96.9969C87.5509 97.5146 88.4484 97.8382 88.4484 98.6147H88.5766L88.5125 98.6795C89.7305 100.038 91.3972 101.721 92.8715 103.015L92.9356 102.951C92.9356 103.339 93.1921 103.08 93.4485 103.274C95.8844 105.28 98.7691 106.704 101.718 107.934C101.91 107.804 102.295 107.934 102.359 108.192C102.423 108.192 102.423 108.128 102.487 108.128C102.936 108.645 103.641 108.192 104.09 108.645H104.667V108.71C107.295 109.357 110.308 109.357 113.064 109.228L113.192 109.357C113.641 109.098 114.218 109.228 114.603 108.969L114.731 109.098C115.692 108.645 116.59 108.904 117.487 108.451C118.449 108.451 119.218 107.804 120.18 107.804C120.693 107.416 121.077 107.222 121.718 107.157C121.846 106.963 122.039 106.898 122.231 106.833L122.295 106.963C122.872 106.316 123.449 106.445 124.154 105.927C126.077 104.698 128.513 103.468 130.436 101.592C130.436 101.397 130.5 101.139 130.757 101.268C132.039 99.9737 133.577 98.4853 134.603 96.6733C135.308 96.4145 134.988 95.5732 135.693 95.1849C135.693 94.7319 136.077 94.4083 136.142 94.0201L136.206 94.0848C136.526 93.567 136.911 92.6611 137.039 92.1433C137.616 91.5609 137.488 91.0432 137.936 90.3961C138.065 89.9431 137.936 89.4901 138.385 89.0371C138.385 88.5194 138.577 87.8075 138.834 87.2898C138.898 86.1249 139.347 85.1542 139.218 83.9894C139.347 83.0187 139.347 82.1774 139.539 81.4008C139.218 80.7537 139.411 79.9771 139.475 79.33C142.936 81.0773 145.693 82.501 149.155 84.1835C149.09 84.6365 149.026 85.4778 148.962 85.9955V86.1897H148.898C148.77 87.2251 148.449 88.5841 148.257 89.6195C148.257 89.8136 148.257 89.9431 148.129 90.0078C148.385 90.2666 147.872 90.3961 147.937 90.5902C147.552 91.8845 147.231 93.3082 146.526 94.6025C146.013 96.3498 145.308 98.0323 144.154 99.456L144.219 99.5207C144.026 99.9737 143.77 100.427 143.385 100.686C143.449 100.88 143.321 101.268 143.065 101.397C142.552 102.433 141.526 103.015 141.142 104.051C137.295 108.71 132.231 113.046 126.846 115.182C126.205 115.505 125.372 115.829 124.667 116.152C115.885 119.453 104.346 119.711 95.7562 115.57C91.1407 113.758 86.8458 110.457 83.256 106.833C83.1278 106.704 83.256 106.251 82.8714 106.316C82.8714 106.251 82.9355 106.186 82.9355 106.186C82.4867 106.057 82.4226 105.539 82.038 105.28C80.8842 104.18 79.9867 103.08 79.1534 101.592C78.8328 101.333 78.4482 100.815 78.5123 100.491C77.8713 100.038 77.8713 99.1972 77.2302 98.7442C77.1661 98.097 76.5251 97.5793 76.3328 96.9969C76.6533 96.3497 75.6277 96.285 75.8841 95.6379C75.6277 94.926 75.4353 94.3436 75.1148 93.6965L75.1789 93.6318C74.6661 93.4376 74.9225 92.7258 74.602 92.4022C74.5379 92.0786 74.2815 91.4962 74.2174 91.0432C73.5122 88.6488 73.0635 86.125 72.9353 83.6658C76.0123 81.9185 79.0893 80.3007 82.1662 78.7476Z" fill="white"/>
<path d="M100.308 83.2375L97.5514 85.8261C96.5257 84.7906 95.9488 83.4964 95.2437 82.2668V81.4902C97.1668 81.4902 98.8976 81.9432 100.308 83.2375Z" fill="white"/>
<path d="M98.2573 82.63C98.5138 82.9535 98.7061 83.4712 98.3855 83.7948C98.1291 84.2478 97.6804 84.3125 97.2317 84.3772C96.8471 84.1184 96.4624 84.1831 96.3342 83.6654C96.3342 83.1477 96.4624 82.4358 97.1035 82.3711C97.5522 82.3711 97.9368 82.4358 98.2573 82.63Z" fill="#E73137"/>
<path d="M111.184 89.9425C106.441 90.3955 102.146 89.1659 98.5558 86.6421L98.4917 86.448L101.184 83.73L111.184 88.713V89.9425Z" fill="white"/>
<path d="M79.6664 84.9601C80.1793 85.6719 80.6921 86.7073 80.1793 87.678C79.6023 87.6133 79.0895 88.3899 78.769 87.5486C78.8972 87.0956 79.1536 87.4839 79.41 87.225C79.987 87.0309 79.7947 86.5132 79.7947 86.1249C78.3844 85.3483 76.7818 86.2543 75.3074 86.5132C75.051 86.772 74.7305 87.0956 74.8587 87.5486C75.1792 88.3252 76.3972 87.6133 76.4613 88.3899C75.8843 88.6487 75.3074 88.8429 74.7946 88.3899C74.3458 87.7428 74.2817 86.9015 74.5382 86.0602C75.5638 84.5718 77.9357 84.1835 79.6664 84.9601Z" fill="#003A78"/>
<path d="M147.168 85.2189C147.361 85.6719 146.912 86.0602 146.527 86.1896C146.271 85.9955 145.822 86.0602 145.758 85.6072C145.822 85.2189 145.886 84.7659 146.335 84.7659C146.656 84.7012 147.04 84.8306 147.168 85.2189Z" fill="#003A78"/>
<path d="M142.681 86.7072C142.296 87.0308 141.399 86.6425 141.078 87.2896C141.014 87.6132 141.078 88.0015 141.463 88.0015C142.745 88.0662 143.386 86.9013 144.604 86.7719C145.117 86.7072 145.437 86.7719 145.95 86.966C146.399 87.2249 146.655 87.8073 146.655 88.1956C146.527 88.778 146.335 89.7488 145.694 89.9429L144.411 89.6193C144.283 88.7133 145.758 89.5546 146.078 88.6486C146.335 88.325 146.014 87.8721 145.694 87.8721C143.835 87.7426 142.36 90.3959 140.758 88.325C140.501 88.0015 140.693 87.5485 140.629 87.2896C140.629 86.6425 141.078 86.5131 141.463 86.0601C141.847 86.3836 142.873 85.9953 142.681 86.7072Z" fill="#003A78"/>
<path d="M124.283 87.0952C124.347 87.3541 124.155 87.6129 123.963 87.8071C120.95 88.2601 118.065 89.2308 115.116 89.619C115.565 89.4249 116.463 89.1661 117.232 88.9719C119.54 88.3248 121.655 87.6776 123.899 87.0952H124.283Z" fill="white"/>
<path d="M81.9745 91.7547C81.654 92.143 81.2053 92.0783 80.8847 92.2724C79.9873 91.69 81.9745 91.0428 80.7565 90.3957L79.0898 91.0428C79.0257 91.1723 79.1539 91.5606 79.4104 91.5606C79.6027 91.4311 79.9873 91.5606 80.0514 91.8194C79.7309 92.4018 78.8975 92.5313 78.2565 92.6607C78.0642 92.0783 79.0898 91.8841 78.5129 91.3017C77.8719 91.4959 76.7821 91.3664 76.4616 92.2724C76.5898 92.596 76.8462 92.7901 77.1026 92.9196C77.359 92.7254 77.6155 92.9843 77.8719 92.9843C77.7437 93.049 78.1924 93.4373 77.8078 93.5667C77.4872 93.502 77.0385 93.7608 76.6539 93.7608C76.077 92.7901 75.8847 91.69 75.3718 90.6546C75.8206 90.5899 76.2052 90.9134 76.6539 90.5899L80.2437 89.2309L80.6283 88.6484L81.9745 91.7547Z" fill="#003A78"/>
<path d="M124.026 88.9722C123.77 89.0369 124.09 89.4252 123.898 89.4252L123.77 89.3605C123.706 89.3605 123.706 89.4899 123.706 89.5547L118.321 91.1078C117.68 91.3667 117.167 90.7195 116.59 90.5254V90.2665C119.026 89.6841 121.526 89.2958 123.962 88.7134L124.026 88.9722Z" fill="white"/>
<path d="M113.578 89.9437C113.193 90.0731 112.873 90.0731 112.552 90.0084V89.4907C113.001 89.2966 113.257 89.7496 113.578 89.9437Z" fill="white"/>
<path d="M111.654 91.1728C111.59 91.6258 111.975 92.5965 111.142 92.4023C108.385 92.5318 105.693 91.6905 103.257 90.6551C102.68 90.3962 101.911 90.3315 101.654 89.6196C104.667 90.9786 108.321 91.108 111.654 91.1728Z" fill="white"/>
<path d="M123.706 90.3963C123.514 91.5611 123.578 92.8554 122.809 93.6319C121.655 92.9201 120.437 92.5965 119.219 91.7552C120.437 91.0434 122.04 90.914 123.322 90.3315L123.706 90.3963Z" fill="white"/>
<path d="M116.461 91.3666C116.012 91.8844 114.73 91.8844 113.833 92.1432C113.448 92.2079 112.935 92.2079 112.551 92.2079C111.974 90.9137 113.32 90.8489 114.153 90.7842C115.051 90.5901 115.82 90.7842 116.461 91.3666Z" fill="white"/>
<path d="M140.18 91.4317C141.462 92.0789 142.873 92.726 144.091 93.3731C144.411 93.2437 144.604 93.3084 144.86 93.3084C144.668 93.8261 144.411 94.7321 143.962 95.1851C143.514 94.4086 142.68 94.085 141.847 93.8261C141.719 94.1497 141.334 94.3438 141.462 94.7968C142.232 95.0557 143.001 96.0264 143.834 95.3793C143.834 96.0911 143.321 96.7383 143.065 97.4501H142.744C142.937 96.6735 142.039 96.803 141.719 96.35C140.309 96.1558 139.283 94.6674 137.809 95.1204C137.744 94.9263 137.809 94.6027 138.065 94.4733C138.257 94.0203 138.385 93.0496 138.962 93.179C138.962 93.9556 140.116 94.1497 140.757 94.4733C141.078 94.3438 141.142 93.9556 141.206 93.632C140.629 93.1143 139.796 92.4671 138.962 92.8554L138.834 92.5966L139.668 90.7846C140.116 90.7199 140.052 91.1729 140.18 91.4317Z" fill="#003A78"/>
<path d="M145.629 91.496C145.694 91.8843 145.437 92.2079 145.117 92.2726C144.732 92.2726 144.283 92.1432 144.219 91.7549C144.155 91.2372 144.54 90.8489 144.988 90.7842C145.309 90.9783 145.694 91.1077 145.629 91.496Z" fill="#003A78"/>
<path d="M111.655 101.851C111.399 102.368 110.694 102.563 110.117 102.368C109.604 102.239 109.54 101.721 109.54 101.268V93.0496C110.245 93.2437 111.078 93.1143 111.719 92.9849L111.655 101.851Z" fill="white"/>
<path d="M83.1929 94.3436C82.8083 95.3143 82.2313 96.285 81.5903 97.191C82.3595 97.4499 82.7442 96.5439 83.4493 96.4144C83.7057 96.1556 83.4493 95.9614 83.6416 95.6379C84.0903 95.5732 84.1544 96.1556 84.4108 96.285C84.2826 96.4792 84.7314 96.9322 84.2185 96.9969L83.898 96.738C82.4236 97.3204 81.1416 98.3559 79.7313 99.0677C79.6031 99.1324 79.4749 99.1324 79.4108 99.1971L79.1543 98.9383C79.9877 97.644 80.6287 96.3497 81.3339 94.9907L81.2057 94.8613C80.3082 95.3143 79.2185 95.832 78.5133 96.6086C78.5133 96.8027 78.5133 97.1263 78.2569 97.1263C77.8723 96.8674 77.68 96.4144 77.5518 95.9614C77.7441 95.5732 77.9364 96.0262 78.1287 96.0262L82.1031 93.7612C82.2313 93.567 82.1672 93.114 82.4877 93.0493L83.1929 94.3436Z" fill="#003A78"/>
<path d="M87.3599 100.427C86.9112 100.556 86.9112 101.139 86.3342 101.009C86.1419 100.621 86.8471 100.168 86.2701 99.8444C84.9881 100.815 83.7701 101.786 82.6803 102.821V103.209C81.9111 103.145 81.6547 102.109 81.1418 101.721L81.9111 101.656C83.065 100.686 84.2829 99.7149 85.4368 98.7442C85.3086 97.9677 84.1547 99.0678 84.347 98.1618L85.1163 97.5146C85.8214 98.5501 86.8471 99.3266 87.3599 100.427Z" fill="#003A78"/>
<path d="M136.849 99.3267C136.336 99.5208 135.502 98.6148 134.99 99.3914C135.118 101.203 137.361 101.851 138.515 102.821C138.836 102.627 139.285 102.692 139.349 102.174C139.349 101.721 138.9 101.527 138.708 101.268L138.772 101.203C138.708 101.074 138.643 101.074 138.515 101.074L138.964 100.621C139.413 100.88 139.733 101.333 140.054 101.656C139.861 102.562 139.028 103.404 138.131 103.598C137.49 103.533 136.849 103.339 136.208 103.21C135.054 102.239 133.9 101.074 134.284 99.5855C134.669 99.0031 135.374 98.2913 136.079 98.2266C136.272 98.4854 136.849 98.9384 136.849 99.3267Z" fill="#003A78"/>
<path d="M89.1528 102.174C89.858 102.497 90.1785 103.015 90.4349 103.662C90.5631 104.309 90.3708 105.086 89.6657 105.539H88.5759C88.3195 106.574 87.5503 107.545 87.7426 108.645C87.2297 108.192 86.781 107.804 86.3323 107.48C87.1015 106.898 87.1015 105.863 87.6144 105.151L87.2938 104.892C86.8451 105.474 85.8836 105.927 86.14 106.833L85.9477 107.027C85.4989 106.574 84.922 105.992 84.4092 105.474L85.0502 105.28C86.14 104.18 87.3579 103.145 88.1272 101.721L87.999 101.591C88.5118 101.009 88.64 102.109 89.1528 102.174Z" fill="#003A78"/>
<path d="M132.68 102.368C133.77 103.468 134.796 104.827 135.885 105.798H136.398C136.078 106.51 135.372 106.898 134.731 107.416C134.603 107.157 134.667 106.834 134.667 106.575L131.847 103.339C131.654 103.145 131.206 103.468 131.142 103.21C131.27 102.692 132.103 102.239 132.616 101.721C133.193 101.786 132.424 102.109 132.68 102.368Z" fill="#003A78"/>
<path d="M89.5386 103.274C89.3463 103.857 88.9617 104.116 88.513 104.633C88.2566 104.569 88.1924 104.698 87.936 104.439C88.2566 103.986 88.8976 102.498 89.5386 103.274Z" fill="white"/>
<path d="M129.219 104.892C128.642 105.215 129.155 105.668 129.347 105.992C130.244 107.027 130.885 108.581 131.975 109.228C132.424 108.904 132.296 108.386 132.232 107.933L132.103 107.869C132.167 107.61 132.552 107.61 132.616 107.351C133.129 107.61 132.873 108.386 133.385 108.71C132.616 109.228 131.655 110.198 130.565 110.651C130.501 110.651 130.437 110.522 130.373 110.522C130.565 110.328 130.629 109.875 130.501 109.745L127.937 106.251C127.744 106.057 127.167 106.251 127.232 105.863C127.937 105.604 128.257 104.957 128.962 104.698L129.219 104.892Z" fill="#003A78"/>
<path d="M94.0907 105.992C93.7061 106.186 94.1548 106.445 93.8984 106.703C93.642 106.703 93.8984 107.092 93.7061 107.221C93.1291 108.71 92.6163 110.392 92.3599 111.751C91.8471 111.363 91.0778 111.039 90.7573 110.522C91.5265 110.327 91.5906 109.68 91.8471 109.033C91.6547 108.71 91.3342 108.515 91.0137 108.321C90.565 108.58 90.3086 108.839 89.988 109.292C90.3086 109.486 89.988 109.81 89.988 110.069L89.8598 110.198C89.6675 109.745 88.7701 109.874 88.9624 109.292C90.1163 108.968 90.6291 107.674 91.5265 107.156C92.0394 106.445 92.7445 106.186 93.1291 105.409C93.4496 105.474 93.8984 105.603 94.0907 105.992Z" fill="#003A78"/>
<path d="M92.1027 108.192C91.7181 108.192 91.7181 107.998 91.4617 107.869L92.295 107.027C92.3591 107.286 92.295 107.869 92.1027 108.192Z" fill="white"/>
<path d="M98.1926 108.257C98.0644 108.322 98.0003 108.516 97.8721 108.516L97.808 108.451C96.9747 109.81 96.2054 111.299 95.7567 112.852C95.8849 113.175 96.2054 112.917 96.3977 113.111C96.6542 112.787 96.9747 112.399 97.4875 112.464C97.808 112.658 97.5516 113.175 97.4234 113.434L96.7824 114.017C95.8849 113.628 94.8593 113.046 93.8977 112.528C94.0259 112.399 94.09 112.14 94.4105 112.269C95.3721 110.91 95.8208 109.357 96.3977 107.869L96.0772 107.481C96.5901 106.963 97.2952 107.804 97.808 107.869C97.8721 108.063 98.1285 107.998 98.1926 108.257Z" fill="#003A78"/>
<path d="M127.424 109.033C127.681 110.004 128.258 111.169 127.745 112.269C127.104 112.981 126.399 113.304 125.437 113.046C124.283 112.398 123.322 111.169 123.065 109.81C123.194 108.969 123.13 108.774 123.45 108.063C123.835 107.739 124.027 107.286 124.54 107.221C125.822 107.092 126.848 107.998 127.424 109.033Z" fill="#003A78"/>
<path d="M126.847 111.298C126.911 111.816 126.847 112.204 126.399 112.398C125.437 111.945 125.181 110.845 124.732 109.875C124.411 109.357 124.155 108.645 124.283 108.127C124.604 107.674 124.988 107.933 125.245 108.192C125.886 109.227 126.27 110.198 126.847 111.298Z" fill="white"/>
<path d="M121.271 110.005C121.783 111.299 121.976 112.982 122.617 114.017C122.809 114.082 123.13 114.082 123.001 114.405C122.36 114.664 121.591 114.858 120.95 114.858C121.655 114.017 120.63 113.176 120.63 112.399C120.373 112.334 119.924 112.464 119.604 112.658C119.668 113.435 119.86 114.599 120.694 115.052C120.245 115.182 119.091 115.7 118.514 115.505C118.899 114.211 117.937 112.917 117.873 111.687C117.617 111.234 117.617 110.522 117.104 110.458L116.847 110.199C117.424 109.875 118.258 109.811 118.899 109.487C119.347 109.811 118.771 110.069 118.835 110.458C118.963 111.04 119.027 111.623 119.476 112.076C119.732 112.011 120.053 111.946 120.309 111.817C120.373 110.975 119.988 110.005 119.219 109.487L121.335 108.84C121.847 109.163 120.758 109.487 121.271 110.005Z" fill="#003A78"/>
<path d="M106.397 110.91C106.269 111.299 106.461 111.816 106.141 112.075C105.884 112.205 105.756 111.881 105.628 111.816C105.949 111.558 105.372 111.04 105.564 110.91C105.564 110.522 105.051 110.587 104.731 110.587C103.897 111.881 103.513 113.434 103.577 114.987C103.705 115.181 103.961 115.57 104.282 115.57C104.795 115.634 104.987 115.052 105.179 114.728C105.051 114.47 105.372 114.47 105.5 114.34C105.949 114.534 105.628 114.987 105.756 115.246C105.628 115.699 105.372 115.958 104.987 116.087C103.961 115.958 102.679 115.958 102.359 114.728C102.038 113.24 102.231 111.881 103.192 110.652C104.025 109.681 105.82 109.81 106.397 110.91Z" fill="#003A78"/>
<path d="M116.078 110.846C115.821 111.104 116.206 111.428 115.821 111.557C115.437 111.557 115.437 110.587 114.86 110.975C114.86 112.399 115.052 113.952 115.308 115.376L115.821 115.893C115.244 116.217 114.283 116.217 113.578 116.217C113.514 115.958 113.834 115.893 113.898 115.764C113.834 114.34 113.77 112.528 113.321 111.04C113.001 111.234 112.744 111.493 112.808 111.816H112.296L112.231 110.781C113.385 110.522 114.667 110.522 115.821 110.263C115.949 110.457 115.821 110.716 116.078 110.846Z" fill="#003A78"/>
<path d="M110.436 113.305C110.757 114.211 110.628 115.635 111.462 116.282C110.821 116.541 109.859 116.541 109.218 116.282C109.795 116.023 109.603 115.117 109.539 114.599C109.346 114.146 108.833 114.405 108.513 114.34C108 114.599 108.192 115.376 108.064 115.764C108.128 115.829 108.449 116.023 108.385 116.282H107.103C106.91 115.829 107.551 115.764 107.551 115.376C108 113.758 108.321 112.205 108.833 110.652C110.628 110.199 109.795 112.464 110.436 113.305Z" fill="#003A78"/>
<path d="M109.219 113.628L108.514 113.693L108.835 112.528C109.155 112.722 109.091 113.304 109.219 113.628Z" fill="white"/>
</g>
<path d="M17.1062 147.282L17.5633 147.577C15.8694 150.158 13.1807 151.664 10.3307 151.664C5.35656 151.664 1.32349 147.55 1.32349 142.496C1.32349 137.387 5.43722 133.354 10.6802 133.354C12.0515 133.354 13.3958 133.623 14.4713 134.107C15.5468 134.618 15.5737 134.618 15.8157 134.618C16.2727 134.618 16.5416 134.295 16.6492 133.569H17.2138L17.3751 139.592L16.8911 139.646C16.7029 138.113 16.219 137.091 15.251 136.15C14.0949 134.994 12.5623 134.349 10.976 134.349C7.10422 134.349 4.57683 137.602 4.57683 142.576C4.57683 147.416 7.07733 150.481 11.0297 150.481C13.5034 150.481 15.4661 149.433 17.1062 147.282Z" fill="#00205B"/>
<path d="M24.318 145.005V149.189C24.318 150.44 24.4353 150.616 25.3931 150.596H27.7389C29.811 150.557 30.593 150.01 31.3944 148.055L31.7072 148.192L30.593 151.476H20.4866V151.124L20.9166 151.105C21.9722 151.065 22.2654 150.694 22.2654 149.443V140.47C22.2654 139.219 21.9722 138.848 20.9166 138.809L20.4866 138.789V138.437H30.3975L30.593 141.389L30.2606 141.428C30.0456 139.649 29.4005 139.161 27.348 139.2H24.318V144.126H27.6216C28.7359 144.145 29.1464 143.618 29.1268 142.171H29.4787V146.921H29.1268C29.1659 145.533 28.775 145.025 27.6216 145.005H24.318Z" fill="#00205B"/>
<path d="M45.2954 151.476L36.5379 141.33V149.443C36.5379 150.694 36.8506 151.065 37.8867 151.105L38.3168 151.124V151.476H33.8011V151.124L34.2312 151.105C35.2673 151.065 35.58 150.694 35.58 149.443V140.177C34.4071 138.965 34.1726 138.828 33.0779 138.789V138.437H36.9288L44.6504 147.449V140.47C44.6504 139.219 44.3376 138.848 43.3015 138.809L42.8715 138.789V138.437H47.3871V138.789L46.957 138.809C45.921 138.848 45.6082 139.219 45.6082 140.47V151.476H45.2954Z" fill="#00205B"/>
<path d="M52.1254 151.476V151.124L52.575 151.105C53.611 151.065 53.9238 150.694 53.9238 149.443V139.395H52.1645C50.4833 139.376 49.8578 139.982 49.7601 141.643L49.3886 141.604L49.5841 138.437H60.2965L60.492 141.604L60.1206 141.643C60.0424 139.982 59.3973 139.376 57.7162 139.395H55.9764V149.443C55.9764 150.694 56.2696 151.065 57.3252 151.105L57.7552 151.124V151.476H52.1254Z" fill="#00205B"/>
<path d="M66.3274 145.357V149.443C66.3274 150.694 66.6206 151.065 67.6762 151.105L68.0476 151.124V151.476H62.496V151.124L62.926 151.105C63.9621 151.065 64.2749 150.694 64.2749 149.443V140.47C64.2749 139.219 63.9621 138.848 62.926 138.809L62.496 138.789V138.437H67.9108C69.5529 138.437 70.2761 138.574 71.019 138.985C71.9768 139.552 72.5828 140.627 72.5828 141.761C72.5828 142.699 72.1723 143.598 71.4686 144.243C70.9799 144.673 70.5303 144.888 69.5529 145.181L72.5633 149.13C73.8925 150.831 74.2444 151.105 75.1241 151.105H75.3978V151.476H71.9768L67.3439 145.357H66.3274ZM66.3274 139.454V144.673H66.6793C68.9273 144.673 70.2957 143.637 70.2957 141.897C70.2957 140.314 69.1619 139.239 67.5198 139.239C67.1093 139.239 66.8552 139.278 66.3274 139.454Z" fill="#00205B"/>
<path d="M83.975 138.3L88.471 148.798C89.1943 150.557 89.683 151.105 90.5627 151.124H90.8363V151.476H85.3629V151.105H85.6756C86.3989 151.105 86.7703 150.85 86.7703 150.362C86.7703 150.068 86.7117 149.853 86.4185 149.111L85.6756 147.195H80.9254L80.0849 149.267C79.8894 149.756 79.7526 150.225 79.7526 150.381C79.7526 150.831 80.2022 151.105 80.9254 151.105H81.16V151.476H76.8008V151.124C78.1105 151.065 78.306 150.889 79.1075 149.032L83.7599 138.3H83.975ZM81.2969 146.374H85.3629L83.2712 141.702L81.2969 146.374Z" fill="#00205B"/>
<path d="M101.986 151.476H92.0358V151.124L92.4659 151.105C93.5019 151.065 93.8147 150.674 93.8147 149.423V140.47C93.8147 139.219 93.5019 138.848 92.4659 138.809L92.0358 138.789V138.437H97.6461V138.789L97.2161 138.809C96.18 138.848 95.8672 139.219 95.8672 140.47V148.954C95.8477 150.44 95.9063 150.479 97.4506 150.518H99.1122C101.008 150.518 101.986 149.775 102.729 147.801L103.139 147.918L101.986 151.476Z" fill="#00205B"/>
<path d="M127.186 147.282L127.643 147.577C125.949 150.158 123.261 151.664 120.411 151.664C115.437 151.664 111.403 147.55 111.403 142.496C111.403 137.387 115.517 133.354 120.76 133.354C122.131 133.354 123.476 133.623 124.551 134.107C125.627 134.618 125.654 134.618 125.896 134.618C126.353 134.618 126.622 134.295 126.729 133.569H127.294L127.455 139.592L126.971 139.646C126.783 138.113 126.299 137.091 125.331 136.15C124.175 134.994 122.642 134.349 121.056 134.349C117.184 134.349 114.657 137.602 114.657 142.576C114.657 147.416 117.157 150.481 121.11 150.481C123.583 150.481 125.546 149.433 127.186 147.282Z" fill="#00205B"/>
<path d="M137.037 138.3L141.533 148.798C142.256 150.557 142.745 151.105 143.625 151.124H143.898V151.476H138.425V151.105H138.738C139.461 151.105 139.832 150.85 139.832 150.362C139.832 150.068 139.774 149.853 139.48 149.111L138.738 147.195H133.987L133.147 149.267C132.951 149.756 132.815 150.225 132.815 150.381C132.815 150.831 133.264 151.105 133.987 151.105H134.222V151.476H129.863V151.124C131.173 151.065 131.368 150.889 132.169 149.032L136.822 138.3H137.037ZM134.359 146.374H138.425L136.333 141.702L134.359 146.374Z" fill="#00205B"/>
<path d="M146.987 151.476V151.124L147.436 151.105C148.473 151.065 148.785 150.694 148.785 149.443V139.395H147.026C145.345 139.376 144.719 139.982 144.622 141.643L144.25 141.604L144.446 138.437H155.158L155.353 141.604L154.982 141.643C154.904 139.982 154.259 139.376 152.578 139.395H150.838V149.443C150.838 150.694 151.131 151.065 152.187 151.105L152.617 151.124V151.476H146.987Z" fill="#00205B"/>
<path d="M161.189 145.279V149.443C161.189 150.674 161.502 151.065 162.538 151.105L162.987 151.124V151.476H157.357V151.124L157.787 151.105C158.824 151.065 159.136 150.694 159.136 149.443V140.47C159.136 139.219 158.824 138.848 157.787 138.809L157.357 138.789V138.437H162.987V138.789L162.538 138.809C161.502 138.848 161.189 139.239 161.189 140.47V144.4H167.034V140.47C167.034 139.239 166.721 138.848 165.685 138.809L165.235 138.789V138.437H170.865V138.789L170.435 138.809C169.399 138.848 169.086 139.219 169.086 140.47V149.443C169.086 150.694 169.399 151.065 170.435 151.105L170.865 151.124V151.476H165.235V151.124L165.685 151.105C166.721 151.065 167.034 150.674 167.034 149.443V145.279H161.189Z" fill="#00205B"/>
<path d="M179.334 138.3C182.931 138.3 185.609 141.135 185.609 144.947C185.609 146.843 184.964 148.544 183.752 149.795C182.579 151.026 181.152 151.613 179.334 151.613C175.795 151.613 173.137 148.759 173.137 144.947C173.137 141.155 175.795 138.3 179.334 138.3ZM179.314 139.063C176.988 139.063 175.424 141.448 175.424 144.966C175.424 148.446 177.007 150.85 179.314 150.85C181.738 150.85 183.321 148.505 183.321 144.947C183.321 141.448 181.699 139.063 179.314 139.063Z" fill="#00205B"/>
<path d="M197.84 151.476H187.89V151.124L188.32 151.105C189.356 151.065 189.669 150.674 189.669 149.423V140.47C189.669 139.219 189.356 138.848 188.32 138.809L187.89 138.789V138.437H193.5V138.789L193.07 138.809C192.034 138.848 191.721 139.219 191.721 140.47V148.954C191.702 150.44 191.76 150.479 193.305 150.518H194.966C196.863 150.518 197.84 149.775 198.583 147.801L198.993 147.918L197.84 151.476Z" fill="#00205B"/>
<path d="M200.78 138.789V138.437H206.39V138.789L205.96 138.809C204.924 138.848 204.611 139.219 204.611 140.47V149.443C204.611 150.694 204.924 151.065 205.96 151.105L206.39 151.124V151.476H200.78V151.124L201.21 151.105C202.246 151.065 202.558 150.694 202.558 149.443V140.47C202.558 139.219 202.246 138.848 201.21 138.809L200.78 138.789Z" fill="#00205B"/>
<path d="M220.13 148.426L220.463 148.641C219.231 150.518 217.276 151.613 215.204 151.613C211.588 151.613 208.656 148.622 208.656 144.947C208.656 141.233 211.647 138.3 215.458 138.3C216.455 138.3 217.433 138.496 218.215 138.848C218.997 139.219 219.016 139.219 219.192 139.219C219.524 139.219 219.72 138.985 219.798 138.457H220.209L220.326 142.836L219.974 142.875C219.837 141.761 219.485 141.018 218.782 140.333C217.941 139.493 216.827 139.024 215.674 139.024C212.859 139.024 211.021 141.389 211.021 145.005C211.021 148.524 212.839 150.753 215.713 150.753C217.511 150.753 218.938 149.99 220.13 148.426Z" fill="#00205B"/>
<path d="M40.1796 168.953V174.68C40.1796 176.374 40.6098 176.911 42.0348 176.965L42.6532 176.992V177.476H34.9097V176.992L35.5012 176.965C36.9262 176.911 37.3564 176.4 37.3564 174.68V162.338C37.3564 160.618 36.9262 160.107 35.5012 160.053L34.9097 160.026V159.542H42.6532V160.026L42.0348 160.053C40.6098 160.107 40.1796 160.645 40.1796 162.338V167.743H48.2188V162.338C48.2188 160.645 47.7886 160.107 46.3636 160.053L45.7452 160.026V159.542H53.4887V160.026L52.8972 160.053C51.4722 160.107 51.042 160.618 51.042 162.338V174.68C51.042 176.4 51.4722 176.911 52.8972 176.965L53.4887 176.992V177.476H45.7452V176.992L46.3636 176.965C47.7886 176.911 48.2188 176.374 48.2188 174.68V168.953H40.1796Z" fill="#00205B"/>
<path d="M55.9996 164.789V164.437H61.6099V164.789L61.1799 164.809C60.1438 164.848 59.831 165.219 59.831 166.47V175.443C59.831 176.694 60.1438 177.065 61.1799 177.105L61.6099 177.124V177.476H55.9996V177.124L56.4297 177.105C57.4657 177.065 57.7785 176.694 57.7785 175.443V166.47C57.7785 165.219 57.4657 164.848 56.4297 164.809L55.9996 164.789Z" fill="#00205B"/>
<path d="M75.9175 172.491V176.283C74.2754 177.202 72.7702 177.613 70.9718 177.613C68.6847 177.613 67.0426 177.026 65.6938 175.697C64.4623 174.505 63.8758 173.078 63.8758 171.299C63.8758 169.442 64.5209 167.721 65.6938 166.49C66.9644 165.141 68.9584 164.3 70.8936 164.3C71.8906 164.3 72.8093 164.516 73.8454 165.004C74.1386 165.141 74.4123 165.219 74.5882 165.219C74.9401 165.219 75.1551 164.926 75.2333 164.437H75.6243L75.8784 168.484L75.4874 168.523C75.1551 167.409 74.8619 166.92 74.2559 166.373C73.3762 165.571 72.2424 165.122 71.0891 165.122C69.408 165.122 67.9027 165.962 67.0231 167.389C66.4366 168.347 66.163 169.422 66.163 170.83C66.163 172.706 66.5735 174.035 67.4922 175.13C68.4501 176.225 69.7403 176.811 71.265 176.811C72.3597 176.811 73.1026 176.577 73.8649 175.951V172.491C73.8649 171.26 73.5522 170.869 72.5161 170.81H72.2033V170.458H77.5986V170.81H77.2663C76.2303 170.869 75.9175 171.26 75.9175 172.491Z" fill="#00205B"/>
<path d="M82.823 171.279V175.443C82.823 176.674 83.1358 177.065 84.1718 177.105L84.6214 177.124V177.476H78.9916V177.124L79.4216 177.105C80.4577 177.065 80.7705 176.694 80.7705 175.443V166.47C80.7705 165.219 80.4577 164.848 79.4216 164.809L78.9916 164.789V164.437H84.6214V164.789L84.1718 164.809C83.1358 164.848 82.823 165.239 82.823 166.47V170.4H88.6679V166.47C88.6679 165.239 88.3551 164.848 87.3191 164.809L86.8695 164.789V164.437H92.4993V164.789L92.0693 164.809C91.0332 164.848 90.7205 165.219 90.7205 166.47V175.443C90.7205 176.694 91.0332 177.065 92.0693 177.105L92.4993 177.124V177.476H86.8695V177.124L87.3191 177.105C88.3551 177.065 88.6679 176.674 88.6679 175.443V171.279H82.823Z" fill="#00205B"/>
<path d="M102.254 177.476H101.716V171.399H102.254C102.469 172.878 102.684 173.577 103.249 174.411C104.109 175.701 105.48 176.508 106.905 176.508C108.653 176.508 110.024 175.244 110.024 173.604C110.024 172.771 109.728 172.125 108.949 171.346C108.465 170.808 107.819 170.324 107.228 169.974L105.131 168.764C102.63 167.339 101.609 165.941 101.609 164.005C101.609 161.236 103.544 159.354 106.368 159.354C107.174 159.354 107.766 159.462 108.841 159.811C109.917 160.161 109.997 160.188 110.239 160.188C110.589 160.188 110.804 159.999 110.992 159.542H111.557L111.53 165.242H111.046C110.428 163.199 109.997 162.285 109.298 161.559C108.653 160.887 107.766 160.537 106.717 160.537C105.077 160.537 103.894 161.559 103.894 162.984C103.894 164.059 104.835 165.189 106.529 166.156L108.626 167.366C111.395 168.953 112.659 170.62 112.659 172.717C112.659 175.594 110.454 177.664 107.362 177.664C106.314 177.664 106.314 177.664 104.082 176.965C103.679 176.831 103.302 176.75 103.06 176.75C102.63 176.75 102.415 176.938 102.254 177.476Z" fill="#00205B"/>
<path d="M127.607 174.426L127.939 174.641C126.708 176.518 124.753 177.613 122.681 177.613C119.065 177.613 116.132 174.622 116.132 170.947C116.132 167.233 119.123 164.3 122.935 164.3C123.932 164.3 124.909 164.496 125.691 164.848C126.473 165.219 126.493 165.219 126.669 165.219C127.001 165.219 127.197 164.985 127.275 164.457H127.685L127.803 168.836L127.451 168.875C127.314 167.761 126.962 167.018 126.258 166.333C125.418 165.493 124.303 165.024 123.15 165.024C120.335 165.024 118.498 167.389 118.498 171.005C118.498 174.524 120.316 176.753 123.189 176.753C124.988 176.753 126.415 175.99 127.607 174.426Z" fill="#00205B"/>
<path d="M134.049 171.279V175.443C134.049 176.674 134.361 177.065 135.398 177.105L135.847 177.124V177.476H130.217V177.124L130.647 177.105C131.683 177.065 131.996 176.694 131.996 175.443V166.47C131.996 165.219 131.683 164.848 130.647 164.809L130.217 164.789V164.437H135.847V164.789L135.398 164.809C134.361 164.848 134.049 165.239 134.049 166.47V170.4H139.894V166.47C139.894 165.239 139.581 164.848 138.545 164.809L138.095 164.789V164.437H143.725V164.789L143.295 164.809C142.259 164.848 141.946 165.219 141.946 166.47V175.443C141.946 176.694 142.259 177.065 143.295 177.105L143.725 177.124V177.476H138.095V177.124L138.545 177.105C139.581 177.065 139.894 176.674 139.894 175.443V171.279H134.049Z" fill="#00205B"/>
<path d="M152.193 164.3C155.79 164.3 158.468 167.135 158.468 170.947C158.468 172.843 157.823 174.544 156.611 175.795C155.438 177.026 154.011 177.613 152.193 177.613C148.655 177.613 145.997 174.759 145.997 170.947C145.997 167.155 148.655 164.3 152.193 164.3ZM152.174 165.063C149.848 165.063 148.284 167.448 148.284 170.966C148.284 174.446 149.867 176.85 152.174 176.85C154.598 176.85 156.181 174.505 156.181 170.947C156.181 167.448 154.559 165.063 152.174 165.063Z" fill="#00205B"/>
<path d="M167.259 164.3C170.856 164.3 173.534 167.135 173.534 170.947C173.534 172.843 172.889 174.544 171.677 175.795C170.504 177.026 169.077 177.613 167.259 177.613C163.721 177.613 161.063 174.759 161.063 170.947C161.063 167.155 163.721 164.3 167.259 164.3ZM167.24 165.063C164.914 165.063 163.35 167.448 163.35 170.966C163.35 174.446 164.933 176.85 167.24 176.85C169.664 176.85 171.247 174.505 171.247 170.947C171.247 167.448 169.625 165.063 167.24 165.063Z" fill="#00205B"/>
<path d="M185.766 177.476H175.816V177.124L176.246 177.105C177.282 177.065 177.594 176.674 177.594 175.423V166.47C177.594 165.219 177.282 164.848 176.246 164.809L175.816 164.789V164.437H181.426V164.789L180.996 164.809C179.96 164.848 179.647 165.219 179.647 166.47V174.954C179.627 176.44 179.686 176.479 181.23 176.518H182.892C184.788 176.518 185.766 175.775 186.508 173.801L186.919 173.918L185.766 177.476Z" fill="#00205B"/>
<defs>
<clipPath id="clip0_6772_22418">
<rect width="86.5714" height="120" fill="white" transform="translate(67.6074 0.354004)"/>
</clipPath>
</defs>
</svg>
