<svg xmlns="http://www.w3.org/2000/svg" xmlns:xlink="http://www.w3.org/1999/xlink" width="750" zoomAndPan="magnify" viewBox="0 0 562.5 242.249991" height="323" preserveAspectRatio="xMidYMid meet" version="1.0"><defs><clipPath id="109da1ef11"><path d="M 425.816406 169.878906 L 549.863281 169.878906 L 549.863281 181.136719 L 425.816406 181.136719 Z M 425.816406 169.878906 " clip-rule="nonzero"/></clipPath><clipPath id="58a5bbc08a"><path d="M 436.96875 56.980469 L 448.007812 56.980469 L 448.007812 163.847656 L 436.96875 163.847656 Z M 436.96875 56.980469 " clip-rule="nonzero"/></clipPath><clipPath id="5b2aa50940"><path d="M 459.609375 102.175781 L 470.640625 102.175781 L 470.640625 163.84375 L 459.609375 163.84375 Z M 459.609375 102.175781 " clip-rule="nonzero"/></clipPath><clipPath id="60c4bb9beb"><path d="M 482.238281 79.554688 L 493.273438 79.554688 L 493.273438 163.84375 L 482.238281 163.84375 Z M 482.238281 79.554688 " clip-rule="nonzero"/></clipPath><clipPath id="3aa3fc1eff"><path d="M 504.871094 136.320312 L 515.90625 136.320312 L 515.90625 163.84375 L 504.871094 163.84375 Z M 504.871094 136.320312 " clip-rule="nonzero"/></clipPath><clipPath id="3b2bbd5e80"><path d="M 527.503906 130.597656 L 538.539062 130.597656 L 538.539062 163.84375 L 527.503906 163.84375 Z M 527.503906 130.597656 " clip-rule="nonzero"/></clipPath></defs><path fill="#ffffff" d="M 14.804688 57.914062 C 13.214844 58.320312 12.25 59.160156 11.566406 60.75 L 10.910156 62.273438 L 10.972656 119.53125 C 11.066406 176.632812 11.066406 176.792969 11.722656 177.878906 C 12.0625 178.472656 12.96875 179.3125 13.746094 179.75 L 15.117188 180.53125 L 89.882812 180.53125 L 91.3125 179.875 C 92.433594 179.34375 92.902344 178.875 93.433594 177.816406 C 94.054688 176.476562 94.085938 176.042969 94.085938 165.511719 C 94.085938 154.765625 94.085938 154.609375 93.371094 153.269531 C 92.902344 152.398438 92.21875 151.683594 91.441406 151.277344 C 90.222656 150.621094 89.726562 150.621094 67.609375 150.46875 L 45.023438 150.308594 L 44.867188 105.609375 L 44.710938 60.90625 L 43.992188 59.875 C 42.46875 57.757812 42.6875 57.789062 28.511719 57.730469 C 21.46875 57.695312 15.304688 57.789062 14.804688 57.914062 Z M 14.804688 57.914062 " fill-opacity="1" fill-rule="nonzero"/><path fill="#ffffff" d="M 107.234375 57.945312 C 105.832031 58.257812 104.429688 59.6875 104.054688 61.09375 C 103.835938 61.839844 103.773438 82.398438 103.808594 119.875 C 103.902344 177.507812 103.902344 177.535156 104.554688 178.410156 C 104.894531 178.875 105.800781 179.59375 106.546875 180 C 107.917969 180.683594 108.074219 180.683594 120.71875 180.683594 C 133.367188 180.683594 133.523438 180.683594 134.894531 179.96875 C 135.644531 179.59375 136.546875 178.875 136.890625 178.410156 L 137.542969 177.535156 L 137.542969 119.375 C 137.542969 70.875 137.480469 61.0625 137.105469 60.21875 C 136.890625 59.660156 136.175781 58.882812 135.550781 58.507812 C 134.429688 57.789062 134.335938 57.789062 121.34375 57.730469 C 114.148438 57.695312 107.792969 57.789062 107.234375 57.945312 Z M 107.234375 57.945312 " fill-opacity="1" fill-rule="nonzero"/><path fill="#ffffff" d="M 150.847656 57.945312 C 150.285156 58.070312 149.441406 58.507812 149.007812 58.910156 C 147.386719 60.4375 147.261719 61.152344 147.109375 70.40625 C 146.921875 83.148438 147.261719 85.234375 149.878906 86.761719 C 150.875 87.351562 151.652344 87.382812 165.582031 87.539062 L 180.222656 87.695312 L 180.378906 132.242188 C 180.5 164.734375 180.628906 177.007812 180.875 177.570312 C 181.40625 178.722656 182.558594 179.65625 184.085938 180.214844 C 185.207031 180.589844 187.417969 180.683594 197.167969 180.683594 C 210.066406 180.683594 211.28125 180.558594 212.867188 178.875 C 214.707031 176.945312 214.644531 178.96875 214.644531 131.214844 L 214.644531 87.539062 L 228.914062 87.539062 C 242.058594 87.539062 243.242188 87.476562 244.394531 86.949219 C 245.082031 86.636719 245.890625 86.078125 246.199219 85.734375 C 247.511719 84.269531 247.632812 83.175781 247.667969 72.804688 C 247.667969 60.8125 247.539062 60.035156 245.019531 58.382812 C 244.144531 57.789062 242.929688 57.789062 197.980469 57.730469 C 172.621094 57.730469 151.40625 57.789062 150.847656 57.945312 Z M 150.847656 57.945312 " fill-opacity="1" fill-rule="nonzero"/><path fill="#ffffff" d="M 260.53125 57.976562 C 259.316406 58.347656 258.070312 59.78125 257.636719 61.339844 C 257.414062 62.179688 257.355469 81.027344 257.386719 119.8125 C 257.476562 176.664062 257.476562 177.101562 258.101562 178.191406 C 258.476562 178.84375 259.316406 179.5625 260.128906 179.96875 C 261.496094 180.683594 261.652344 180.683594 274.144531 180.683594 C 288.289062 180.683594 289.066406 180.589844 290.40625 178.722656 L 291.121094 177.722656 L 291.121094 119.28125 C 291.121094 54.796875 291.277344 59.847656 289.128906 58.476562 C 288.007812 57.789062 287.851562 57.789062 274.769531 57.730469 C 267.257812 57.695312 261.09375 57.789062 260.53125 57.976562 Z M 260.53125 57.976562 " fill-opacity="1" fill-rule="nonzero"/><path fill="#ffffff" d="M 303.117188 57.976562 C 301.714844 58.566406 301.246094 59.191406 301.246094 60.65625 C 301.246094 62.027344 301.871094 63.492188 303.675781 66.265625 C 304.144531 67.011719 305.609375 69.316406 306.949219 71.402344 C 308.285156 73.523438 310.90625 77.601562 312.773438 80.53125 C 314.644531 83.425781 317.164062 87.445312 318.410156 89.40625 C 319.65625 91.371094 321.277344 93.894531 321.996094 95.015625 C 322.710938 96.140625 326.261719 101.714844 329.875 107.414062 C 337.382812 119.253906 336.855469 117.382812 334.019531 121.746094 C 333.210938 122.960938 330.0625 127.882812 327.039062 132.648438 C 323.988281 137.382812 318.847656 145.417969 315.578125 150.46875 C 312.339844 155.511719 309.378906 160.15625 309.035156 160.746094 C 308.695312 161.335938 306.511719 164.765625 304.207031 168.347656 C 301.871094 171.960938 299.84375 175.417969 299.628906 176.074219 C 299.066406 177.945312 299.5625 179.125 301.246094 180 L 302.648438 180.714844 L 317.601562 180.625 C 332.429688 180.53125 332.585938 180.496094 334.363281 179.78125 C 336.386719 178.96875 337.757812 177.757812 339.3125 175.324219 C 339.90625 174.421875 343.863281 167.472656 348.128906 159.902344 C 352.367188 152.304688 355.949219 146.105469 356.105469 146.105469 C 356.449219 146.105469 357.074219 147.070312 362.054688 155.761719 C 375.203125 178.566406 375.042969 178.316406 377.195312 179.40625 C 379.5 180.558594 381.214844 180.683594 396.449219 180.683594 C 410.402344 180.683594 411.308594 180.652344 412.394531 180.089844 C 413.613281 179.46875 414.328125 178.378906 414.328125 177.164062 C 414.296875 175.980469 413.300781 174.140625 408.84375 167.382812 C 406.476562 163.734375 402.832031 158.160156 400.777344 154.984375 C 398.722656 151.808594 395.203125 146.386719 392.925781 142.898438 C 390.683594 139.441406 387.785156 134.984375 386.507812 133.023438 C 385.234375 131.058594 382.679688 127.132812 380.808594 124.300781 C 378.96875 121.464844 377.320312 118.785156 377.164062 118.347656 C 376.882812 117.632812 377.476562 116.601562 383.332031 107.445312 C 389.9375 97.199219 391.464844 94.800781 393.890625 91.027344 C 394.640625 89.875 397.660156 85.140625 400.621094 80.53125 C 405.917969 72.277344 407.007812 70.5625 410.25 65.578125 C 412.832031 61.589844 412.988281 59.753906 410.902344 58.320312 L 409.84375 57.601562 L 394.078125 57.695312 L 378.347656 57.789062 L 376.820312 58.566406 C 374.390625 59.816406 374.546875 59.566406 365.515625 75.234375 C 363.519531 78.660156 361.121094 82.804688 360.1875 84.421875 C 359.25 86.042969 358.160156 87.945312 357.785156 88.628906 C 357.382812 89.316406 356.886719 89.875 356.664062 89.875 C 356.449219 89.875 355.574219 88.691406 354.734375 87.230469 C 353.863281 85.761719 352.117188 82.742188 350.808594 80.53125 C 349.503906 78.285156 346.601562 73.335938 344.390625 69.503906 C 339.90625 61.777344 338.222656 59.660156 335.761719 58.535156 L 334.113281 57.789062 L 319.003906 57.730469 C 309.285156 57.664062 303.617188 57.757812 303.117188 57.976562 Z M 303.117188 57.976562 " fill-opacity="1" fill-rule="nonzero"/><g clip-path="url(#109da1ef11)"><path fill="#ffffff" d="M 425.816406 169.878906 L 549.851562 169.878906 L 549.851562 181.136719 L 425.816406 181.136719 Z M 425.816406 169.878906 " fill-opacity="1" fill-rule="nonzero"/></g><g clip-path="url(#58a5bbc08a)"><path fill="#ffffff" d="M 436.96875 56.980469 L 448.007812 56.980469 L 448.007812 163.839844 L 436.96875 163.839844 Z M 436.96875 56.980469 " fill-opacity="1" fill-rule="nonzero"/></g><g clip-path="url(#5b2aa50940)"><path fill="#ffffff" d="M 459.609375 102.175781 L 470.640625 102.175781 L 470.640625 163.863281 L 459.609375 163.863281 Z M 459.609375 102.175781 " fill-opacity="1" fill-rule="nonzero"/></g><g clip-path="url(#60c4bb9beb)"><path fill="#ffffff" d="M 482.238281 79.554688 L 493.273438 79.554688 L 493.273438 163.828125 L 482.238281 163.828125 Z M 482.238281 79.554688 " fill-opacity="1" fill-rule="nonzero"/></g><g clip-path="url(#3aa3fc1eff)"><path fill="#ffffff" d="M 504.871094 136.320312 L 515.90625 136.320312 L 515.90625 163.863281 L 504.871094 163.863281 Z M 504.871094 136.320312 " fill-opacity="1" fill-rule="nonzero"/></g><g clip-path="url(#3b2bbd5e80)"><path fill="#ffffff" d="M 527.503906 130.597656 L 538.539062 130.597656 L 538.539062 163.832031 L 527.503906 163.832031 Z M 527.503906 130.597656 " fill-opacity="1" fill-rule="nonzero"/></g><path fill="#ffffff" d="M 528.167969 57.664062 L 528.167969 60.132812 L 523.875 60.132812 L 523.875 72.535156 L 520.949219 72.535156 L 520.949219 60.132812 L 516.65625 60.132812 L 516.65625 57.664062 Z M 528.167969 57.664062 " fill-opacity="1" fill-rule="nonzero"/><path fill="#ffffff" d="M 533.210938 72.535156 L 530.507812 72.535156 L 530.507812 57.664062 L 534.355469 57.664062 L 538.125 68.59375 L 538.335938 68.59375 L 542.078125 57.664062 L 545.835938 57.664062 L 545.835938 72.535156 L 543.050781 72.535156 L 543.050781 62.707031 L 542.792969 62.660156 L 539.351562 72.535156 L 536.894531 72.535156 L 533.457031 62.660156 L 533.210938 62.707031 Z M 533.210938 72.535156 " fill-opacity="1" fill-rule="nonzero"/></svg>